<?xml version="1.0" encoding="UTF-8"?>
<svg width="84px" height="78px" viewBox="0 0 84 78" version="1.1" xmlns="http://www.w3.org/2000/svg" xmlns:xlink="http://www.w3.org/1999/xlink">
    <title>data-storage</title>
    <g id="Page-1" stroke="none" stroke-width="1" fill="none" fill-rule="evenodd">
        <g id="Artboard" transform="translate(-493.000000, -1143.000000)" fill-rule="nonzero">
            <g id="data-storage" transform="translate(494.000000, 1144.000000)">
                <path d="M43.8640441,68.4449005 L43.8640441,40.1660614 L38.1359559,40.1660614 L38.1359559,68.4449005 L12.1624908,68.4449005 C11.5731659,68.4449005 11.0951996,68.9228668 11.0951996,69.5121918 L11.0951996,73.1056977 C11.0951996,73.6950225 11.5731659,74.1729889 12.1624908,74.1729889 L69.8375092,74.1729889 C70.4268341,74.1729889 70.9048004,73.6950225 70.9048004,73.1056977 L70.9048004,69.5121918 C70.9048004,68.9228668 70.4268341,68.4449005 69.8375092,68.4449005 L43.8640441,68.4449005 Z" id="Path" fill="#FFFFFF"></path>
                <path d="M30.4421997,74.5546112 L30.4421997,68.0632782 C30.4421997,67.8192901 30.6398926,67.6215972 30.8845063,67.6215972 L36.7295838,67.6215972 C37.051773,67.6215972 37.3126525,67.3607178 37.3126525,67.0385284 L37.3126525,62.2188263 C37.3126525,61.9748383 37.5103455,61.7765197 37.7543335,61.7765197 L44.2456665,61.7765197 C44.4896545,61.7765197 44.6879731,61.9748383 44.6879731,62.2188263 L44.6879731,67.0385284 C44.6879731,67.3607178 44.9488525,67.6215972 45.2704162,67.6215972 L51.1154937,67.6215972 C51.3601074,67.6215972 51.5578003,67.8192901 51.5578003,68.0632782 L51.5578003,74.5546112 C51.5578003,74.7985992 51.3601074,74.9962921 51.1154937,74.9962921 L30.8838807,74.9962921 C30.6398926,74.9962921 30.4421997,74.7985992 30.4421997,74.5546112 Z" id="Path" fill="#FFFFFF"></path>
                <path d="M51.1154937,67.6215972 L45.2704162,67.6215972 C44.9488525,67.6215972 44.6879731,67.3607178 44.6879731,67.0385284 L44.6879731,62.2188263 C44.6879731,61.9748383 44.4896545,61.7765197 44.2456665,61.7765197 L42.2975158,61.7765197 L42.2975158,74.9962921 L51.1154937,74.9962921 C51.3601074,74.9962921 51.5578003,74.7985992 51.5578003,74.5546112 L51.5578003,68.0632782 C51.5578003,67.8192901 51.3601074,67.6215972 51.1154937,67.6215972 L51.1154937,67.6215972 Z" id="Path" fill="#FFFFFF"></path>
                <path d="M74.5790099,29.1847228 C74.6328125,28.635437 74.6609649,28.0786437 74.6609649,27.5155946 C74.6609649,18.2202759 67.1261139,10.6847992 57.8307953,10.6847992 C56.6358795,10.6847992 55.4709931,10.8099213 54.3467713,11.0464019 C50.4210663,5.11499023 43.6907501,1.20117188 36.045166,1.20117188 C25.0306701,1.20117188 15.9142762,9.31971737 14.3502502,19.8994141 C6.84855656,21.4171447 1.20117188,28.0461121 1.20117188,35.9957428 C1.20117188,45.0658417 8.5539703,52.4192657 17.6246948,52.4192657 L68.3441772,52.4192657 C75.2227631,52.4192657 80.7988281,46.8432007 80.7988281,39.9646148 C80.7988281,35.3582459 78.2970123,31.3380737 74.5790099,29.1847228 L74.5790099,29.1847228 Z" id="Path" fill="#FFFFFF"></path>
                <path d="M74.5790099,29.1847228 C74.6328125,28.635437 74.6609649,28.0786437 74.6609649,27.5155946 C74.6609649,18.2202759 67.1261139,10.6847992 57.8307953,10.6847992 C56.6358795,10.6847992 55.4709931,10.8099213 54.3467713,11.0464019 C50.4210663,5.11499023 43.6907501,1.20117188 36.045166,1.20117188 C32.8395386,1.20117188 29.7953185,1.88996883 27.050766,3.12617489 C34.5862427,3.21563721 41.2064513,7.10443115 45.0864868,12.9670258 C46.2107086,12.730545 47.3755951,12.6054229 48.5705108,12.6054229 C57.8658295,12.6054229 65.4013062,20.1408996 65.4013062,29.4362183 C65.4013062,29.9992676 65.3731537,30.5560607 65.3187256,31.1053467 C69.0373535,33.2586974 71.5385438,37.2788696 71.5385438,41.8852387 C71.5385438,46.320816 69.2175293,50.2127381 65.7253722,52.4192657 L68.3441772,52.4192657 C75.2227631,52.4192657 80.7988281,46.8432007 80.7988281,39.9646148 C80.7988281,35.3582459 78.2970123,31.3380737 74.5790099,29.1847228 Z" id="Path" fill="#FFFFFF"></path>
                <path d="M35.2744141,24.9887543 L34.6150207,22.9411317 C34.4898986,22.4919434 34.0807495,22.1803895 33.6140441,22.1803895 L21.9633027,22.1803895 C21.3889923,22.1803895 20.9235382,22.6458436 20.9235382,23.2201538 L20.9235382,45.1596832 C20.9235382,45.733368 21.3889923,46.1988221 21.9633027,46.1988221 L60.0373231,46.1988221 C60.6110077,46.1988221 61.0764618,45.733368 61.0764618,45.1596832 L61.0764618,26.7886353 C61.0764618,26.214325 60.6110077,25.7488709 60.0373231,25.7488709 L36.2760162,25.7488709 C35.809311,25.7488709 35.3995361,25.4379425 35.2744141,24.9887543 Z" id="Path" fill="#82D9D9"></path>
                <path d="M25.3553619,22.9411317 L26.0141297,24.9887543 C26.1398774,25.4379425 26.5490264,25.7488709 27.0157319,25.7488709 L36.2760162,25.7488709 C35.809311,25.7488709 35.3995361,25.4379425 35.2744141,24.9887543 L34.6150207,22.9411317 C34.4898986,22.4919434 34.0807495,22.1803895 33.6140441,22.1803895 L24.3537598,22.1803895 C24.820465,22.1803895 25.2296143,22.4919434 25.3553619,22.9411317 Z" id="Path" fill="#82D9D9"></path>
                <path d="M60.0366973,25.7488709 L51.8161773,25.7488709 L51.8161773,46.1988221 L60.0366973,46.1988221 C60.6110077,46.1988221 61.0764618,45.733368 61.0764618,45.1596832 L61.0764618,26.7886353 C61.0764618,26.214325 60.6110077,25.7488709 60.0366973,25.7488709 L60.0366973,25.7488709 Z" id="Path" fill="#82D9D9"></path>
                <path d="M21.5616607,53.6204376 C22.2248077,53.6204376 22.7628326,53.0824127 22.7628326,52.4192657 C22.7628326,51.7554932 22.2248077,51.2180938 21.5616607,51.2180938 L17.6246948,51.2180938 C9.23088078,51.2180938 2.40234375,44.3889312 2.40234375,35.9957428 C2.40234375,28.779953 7.52734375,22.5057069 14.5886078,21.0768127 C15.0847168,20.9760894 15.4644623,20.5756988 15.5382843,20.0752105 C16.2577362,15.2073364 18.7101288,10.7379761 22.4425201,7.48918156 C26.2111969,4.20910645 31.0421601,2.40234375 36.045166,2.40234375 C43.0207215,2.40234375 49.4876557,5.88198845 53.3445435,11.7095489 C53.616684,12.120575 54.1121674,12.3238984 54.5938873,12.2225494 C55.6536713,11.9992065 56.7428589,11.8859711 57.8301698,11.8859711 C60.9163056,11.8859711 63.9004669,12.7837218 66.4598389,14.482254 C67.0128784,14.8488617 67.7579804,14.6980897 68.1252137,14.14505 C68.4918213,13.5926361 68.3410492,12.8469086 67.7880097,12.4803009 C64.8338775,10.5196381 61.3905181,9.48362736 57.8301698,9.48362736 C56.8467101,9.48362736 55.8626251,9.56370548 54.8941803,9.72261043 C50.5480653,3.61915584 43.5612489,-4.5519144e-15 36.045166,-4.5519144e-15 C30.4622192,-4.5519144e-15 25.0713349,2.0163422 20.8647309,5.67678825 C16.9102479,9.11889648 14.2438965,13.7909546 13.2973481,18.9071961 C5.54415902,20.8647309 -1.36557432e-14,27.9209901 -1.36557432e-14,35.9957428 C-1.36557432e-14,45.713974 7.9064637,53.6204376 17.6246948,53.6204376 L21.5616607,53.6204376 Z" id="Path" stroke="#0C2A39" stroke-width="1.01999998" fill="#0C2A39"></path>
                <path d="M68.3441772,53.6204376 C75.8740234,53.6204376 82,47.494461 82,39.9646148 C82,35.3663788 79.6552124,31.0596772 75.8327332,28.5478516 C75.8527528,28.2031402 75.8627625,27.8578033 75.8627625,27.5155946 C75.8627625,23.5254517 74.5852661,19.7436371 72.169159,16.5805512 C71.7668915,16.0531616 71.0130311,15.9524384 70.4856415,16.3547059 C69.958252,16.7575988 69.8575287,17.5114594 70.2604218,18.0388488 C72.3537139,20.7796479 73.4604188,24.0565948 73.4604188,27.5155946 C73.4604188,28.0298462 73.4341431,28.5516053 73.3834687,29.0671082 C73.3371734,29.5356903 73.5692749,29.9880067 73.9771729,30.2244873 C77.4436798,32.2320709 79.5976562,35.9644623 79.5976562,39.9646148 C79.5976562,46.1694184 74.5496064,51.2180938 68.3441772,51.2180938 L27.1464844,51.2180938 C26.4827118,51.2180938 25.9453125,51.7554932 25.9453125,52.4192657 C25.9453125,53.0824127 26.4827118,53.6204376 27.1464844,53.6204376 L36.934784,53.6204376 L36.934784,60.7949371 C36.4430542,61.0789643 36.1114806,61.610733 36.1114806,62.2182007 L36.1114806,66.4197998 L30.8838807,66.4197998 C30.276413,66.4197998 29.7446441,66.7513732 29.4599914,67.2437286 L12.1624908,67.2437286 C10.9118957,67.2437286 9.89402775,68.2615967 9.89402775,69.5121918 L9.89402775,73.1056977 C9.89402775,74.3562928 10.9118957,75.3741607 12.1624908,75.3741607 L29.4599914,75.3741607 C29.7446441,75.8658905 30.276413,76.1974639 30.8838807,76.1974639 L51.1154937,76.1974639 C51.723587,76.1974639 52.2553559,75.8658905 52.5393829,75.3741607 L69.8368836,75.3741607 C71.0881043,75.3741607 72.1053467,74.3562928 72.1053467,73.1056977 L72.1053467,69.5121918 C72.1053467,68.2615967 71.0881043,67.2437286 69.8368836,67.2437286 L52.5393829,67.2437286 C52.2553559,66.7513732 51.723587,66.4197998 51.1154937,66.4197998 L45.8885194,66.4197998 L45.8885194,62.2182007 C45.8885194,61.610733 45.5569458,61.0789643 45.065216,60.7949371 L45.065216,53.6204376 L68.3441772,53.6204376 Z M29.2410278,72.971817 L12.2963715,72.971817 L12.2963715,69.6460723 L29.2410278,69.6460723 L29.2410278,72.971817 Z M52.7589722,69.6460723 L69.7030029,69.6460723 L69.7030029,72.971817 L52.7589722,72.971817 L52.7589722,69.6460723 Z M39.3371278,53.6204376 L42.6628722,53.6204376 L42.6628722,60.5753478 L39.3371278,60.5753478 L39.3371278,53.6204376 Z M45.2704162,68.8227691 L50.3566284,68.8227691 L50.3566284,73.7951202 L31.6433716,73.7951202 L31.6433716,68.8227691 L36.7295838,68.8227691 C37.7130431,68.8227691 38.5138244,68.0219879 38.5138244,67.0385284 L38.5138244,62.9776916 L43.4861756,62.9776916 L43.4861756,67.0385284 C43.4861756,68.0219879 44.2869569,68.8227691 45.2704162,68.8227691 L45.2704162,68.8227691 Z" id="Shape" stroke="#0C2A39" stroke-width="1.01999998" fill="#0C2A39"></path>
                <path d="M58.2549591,16.6036987 L23.4854126,16.6036987 C22.3680724,16.6036987 21.4584351,17.5127105 21.4584351,18.6306763 L21.4584351,21.0367736 C20.4649658,21.2663726 19.7223663,22.1578674 19.7223663,23.2201538 L19.7223663,45.1596832 C19.7223663,46.3946381 20.7277222,47.399994 21.9633027,47.399994 L60.0366973,47.399994 C61.2722778,47.399994 62.2776337,46.3946381 62.2776337,45.1596832 L62.2776337,26.7886353 C62.2776337,25.6356353 61.4024048,24.6834565 60.2819366,24.5614624 L60.2819366,18.6306763 C60.2819366,17.5127105 59.3729248,16.6036987 58.2549591,16.6036987 Z M23.8607788,19.0060425 L57.8795929,19.0060425 L57.8795929,24.5476991 L36.3942567,24.5476991 L35.764267,22.5914154 C35.486496,21.6411133 34.6062622,20.9798432 33.6140441,20.9798432 L23.8607788,20.9798432 L23.8607788,19.0060425 Z M59.87529,44.9976502 L22.12471,44.9976502 L22.12471,23.3815614 L33.4951782,23.3815614 L34.1251679,25.3384705 C34.4029389,26.2887725 35.2831727,26.9500428 36.2760162,26.9500428 L59.87529,26.9500428 L59.87529,44.9976502 Z" id="Shape" stroke="#0C2A39" stroke-width="1.01999998" fill="#0C2A39"></path>
            </g>
        </g>
    </g>
</svg>