<?xml version="1.0" encoding="UTF-8"?>
<svg width="70px" height="81px" viewBox="0 0 70 81" version="1.1" xmlns="http://www.w3.org/2000/svg" xmlns:xlink="http://www.w3.org/1999/xlink">
    <title>collaborative</title>
    <g id="Page-1" stroke="none" stroke-width="1" fill="none" fill-rule="evenodd">
        <g id="Artboard" transform="translate(-1143.000000, -1143.000000)" fill-rule="nonzero">
            <g id="collaborative" transform="translate(1144.000000, 1144.000000)">
                <path d="M54.0822991,16.6972174 L54.0822991,68.5126082 C54.0822991,70.1403168 52.7624868,71.4583287 51.1335778,71.4583287 L4.10048128,71.4583287 C2.47157237,71.4583287 1.15236008,70.1403168 1.15236008,68.5126082 L1.15236008,4.09808053 C1.15236008,2.47037192 2.47397297,1.15236008 4.10048128,1.15236008 L38.6826873,1.15236008 C39.17184,1.15236008 39.6495894,1.25859324 40.0871261,1.46205685 C40.45144,1.62710846 40.7869447,1.86118153 41.0732341,2.1516723 L53.1123961,14.3402809 C53.3962849,14.6259702 53.6231557,14.9590743 53.784006,15.3203873 C53.9802673,15.7501214 54.0822991,16.2176675 54.0822991,16.6972174 Z" id="Path" fill="#FFFFFF"></path>
                <path d="M53.784006,15.3203873 L43.0358475,15.3203873 C41.4063383,15.3203873 40.0871261,14.0023753 40.0871261,12.3746667 L40.0871261,1.46205685 C40.45144,1.62710846 40.7869447,1.86118153 41.0732341,2.1516723 L53.1123961,14.3402809 C53.3962849,14.6259702 53.6237558,14.9590743 53.784006,15.3203873 L53.784006,15.3203873 Z" id="Path" fill="#82D9D9"></path>
                <path d="M13.2323348,11.5986242 C13.2323348,10.1743792 12.0763735,9.01961837 10.6503279,9.01961837 C9.22428228,9.01961837 8.06832116,10.1743792 8.06832116,11.5986242 C8.06832116,13.0234695 9.22428228,14.1782303 10.6503279,14.1782303 C12.0763735,14.1782303 13.2323348,13.0234695 13.2323348,11.5986242 Z" id="Path" fill="#82D9D9"></path>
                <path d="M38.0524903,65.8477755 C38.0524903,69.091189 36.7296769,72.0255059 34.5912087,74.1399666 L34.5912087,74.1417672 C32.4845505,76.2262185 29.5850444,77.5148212 26.3860449,77.5148212 C23.199049,77.5148212 20.3091461,76.2358215 18.2042884,74.1639741 C16.0532162,72.0477128 14.7189993,69.1037929 14.7189993,65.8477755 C14.7189993,59.4047622 19.9430316,54.1807299 26.3860449,54.1807299 C32.8290581,54.1807299 38.0524903,59.4047622 38.0524903,65.8477755 Z" id="Path" fill="#FFFFFF"></path>
                <path d="M34.5912087,74.1399666 L34.5912087,74.1417672 C32.4845505,76.2262185 29.5850444,77.5148212 26.3860449,77.5148212 C23.199049,77.5148212 20.3091461,76.2358215 18.2042884,74.1639741 C18.3573361,73.4989663 18.7318531,72.8879753 19.2732223,72.3922205 C20.0360607,71.6906013 21.0563796,71.3352903 22.0923032,71.3352903 L30.7079954,71.3352903 C31.7457196,71.3352903 32.764238,71.6906013 33.5282767,72.3922205 C34.0624435,72.8831738 34.4351601,73.4833614 34.5912087,74.1399666 Z" id="Path" fill="#FFFFFF"></path>
                <path d="M34.5912087,74.1399666 C34.4351601,73.4833614 34.0624435,72.8831738 33.5282767,72.3922205 C33.1225499,72.0195041 32.6436001,71.7476191 32.1292395,71.5717641 C31.5956728,72.5170595 30.9360666,73.3819297 30.1696272,74.1399666 L30.1696272,74.1417672 C28.5605243,75.7334646 26.4892772,76.8588161 24.174954,77.302955 C24.5314653,77.3713763 24.8939786,77.4241928 25.2612934,77.4596039 C25.2901024,77.4626048 25.3195115,77.4638051 25.3483205,77.466206 C25.503169,77.4800102 25.6580175,77.4926141 25.8146664,77.5004167 C26.0037255,77.5094195 26.1945851,77.514221 26.3860449,77.514221 C27.9855447,77.514221 29.5106212,77.1925205 30.8982548,76.6097384 C32.2864885,76.0269562 33.5378797,75.1836928 34.5912087,74.1417672 L34.5912087,74.1399666 Z" id="Path" fill="#FFFFFF"></path>
                <path d="M28.5035066,66.2054873 L27.1896961,67.0061374 C26.7053447,67.30203 26.0961543,67.30203 25.6112028,67.0061374 L24.296792,66.2054873 C23.8442506,65.929401 23.5681644,65.4372473 23.5681644,64.9066815 L23.5681644,61.3877819 C23.5681644,60.4202796 24.3514091,59.6358344 25.3177111,59.6358344 L27.4831877,59.6358344 C28.4494896,59.6358344 29.2327343,60.4202796 29.2327343,61.3877819 L29.2327343,64.9066815 C29.2327343,65.4372473 28.9566482,65.929401 28.5035066,66.2054873 Z" id="Path" fill="#FFFFFF"></path>
                <path d="M52.5404174,65.8477755 C52.5404174,69.091189 51.2170039,72.0255059 49.0785356,74.1399666 L49.0785356,74.1417672 C46.9718774,76.2262185 44.0729715,77.5148212 40.8733717,77.5148212 C37.6863759,77.5148212 34.7964729,76.2358215 32.6916152,74.1639741 C30.5411433,72.0477128 29.2063262,69.1037929 29.2063262,65.8477755 C29.2063262,59.4047622 34.4303586,54.1807299 40.8733717,54.1807299 C47.3169852,54.1807299 52.5404174,59.4047622 52.5404174,65.8477755 Z" id="Path" fill="#FFFFFF"></path>
                <path d="M49.0785356,74.1399666 L49.0785356,74.1417672 C46.9718774,76.2262185 44.0729715,77.5148212 40.8733717,77.5148212 C37.6863759,77.5148212 34.7964729,76.2358215 32.6916152,74.1639741 C32.844663,73.4989663 33.21918,72.8879753 33.7605491,72.3922205 C34.5233875,71.6906013 35.5437063,71.3352903 36.5796301,71.3352903 L45.1953223,71.3352903 C46.2330465,71.3352903 47.2515648,71.6906013 48.0156035,72.3922205 C48.5497704,72.8831738 48.9224869,73.4833614 49.0785356,74.1399666 L49.0785356,74.1399666 Z" id="Path" fill="#FFFFFF"></path>
                <path d="M49.0785356,74.1399666 C48.9224869,73.4833614 48.5497704,72.8831738 48.0156035,72.3922205 C47.6098767,72.0195041 47.1309271,71.7476191 46.6165664,71.5717641 C46.0829996,72.5170595 45.4233934,73.3819297 44.656954,74.1399666 L44.656954,74.1417672 C43.0478512,75.7334646 40.976604,76.8588161 38.6622808,77.302955 C39.0193924,77.3713763 39.3813056,77.4241928 39.7486203,77.4596039 C39.7774293,77.4626048 39.8068385,77.4638051 39.8356475,77.466206 C39.990496,77.4800102 40.1453443,77.4926141 40.3019932,77.5004167 C40.4910523,77.5094195 40.681912,77.514221 40.8733717,77.514221 C42.4734718,77.514221 43.9979481,77.1925205 45.3861819,76.6097384 C46.7738155,76.0269562 48.0252065,75.1836928 49.0785356,74.1417672 L49.0785356,74.1399666 Z" id="Path" fill="#FFFFFF"></path>
                <path d="M42.9914337,66.2054873 L41.677623,67.0061374 C41.1926715,67.30203 40.5834811,67.30203 40.0985296,67.0061374 L38.7847191,66.2054873 C38.3321777,65.929401 38.0554913,65.4372473 38.0554913,64.9066815 L38.0554913,61.3877819 C38.0554913,60.4202796 38.838736,59.6358344 39.8050379,59.6358344 L41.9711147,59.6358344 C42.9374167,59.6358344 43.7206614,60.4202796 43.7206614,61.3877819 L43.7206614,64.9066815 C43.7200613,65.4372473 43.443975,65.929401 42.9914337,66.2054873 L42.9914337,66.2054873 Z" id="Path" fill="#FFFFFF"></path>
                <path d="M67.0937649,65.8477755 C67.0937649,69.091189 65.7709515,72.0255059 63.6324833,74.1399666 L63.6324833,74.1417672 C61.5258251,76.2262185 58.626319,77.5148212 55.4273195,77.5148212 C52.2403236,77.5148212 49.3504206,76.2358215 47.245563,74.1639741 C45.0944908,72.0477128 43.7602739,69.1037929 43.7602739,65.8477755 C43.7602739,59.4047622 48.9843062,54.1807299 55.4273195,54.1807299 C61.8703327,54.1807299 67.0937649,59.4047622 67.0937649,65.8477755 L67.0937649,65.8477755 Z" id="Path" fill="#FFFFFF"></path>
                <path d="M55.4273195,54.1807299 C54.6710831,54.1807299 53.9322523,54.2557534 53.2162285,54.3931964 C58.6017114,55.4267192 62.6721832,60.1609985 62.6721832,65.8477755 C62.6721832,69.0917892 61.3487697,72.0255059 59.2109018,74.1405668 L59.2109018,74.1417672 C57.6017989,75.7334646 55.5305516,76.8588161 53.2162285,77.302955 C53.9322523,77.4403979 54.6710831,77.5148212 55.4273195,77.5148212 C58.626319,77.5148212 61.5258251,76.2262185 63.6324833,74.1417672 L63.6324833,74.1399666 C65.7709515,72.0255059 67.0937649,69.091189 67.0937649,65.8477755 C67.0937649,59.4047622 61.8703327,54.1807299 55.4273195,54.1807299 L55.4273195,54.1807299 Z" id="Path" fill="#FFFFFF"></path>
                <path d="M63.6324833,74.1399666 L63.6324833,74.1417672 C61.5258251,76.2262185 58.626319,77.5148212 55.4273195,77.5148212 C52.2403236,77.5148212 49.3504206,76.2358215 47.245563,74.1639741 C47.3986107,73.4989663 47.7731277,72.8879753 48.3144969,72.3922205 C49.0773352,71.6906013 50.0976542,71.3352903 51.1335778,71.3352903 L59.74927,71.3352903 C60.7869942,71.3352903 61.8055124,71.6906013 62.5695511,72.3922205 C63.1037181,72.8831738 63.4758344,73.4833614 63.6324833,74.1399666 L63.6324833,74.1399666 Z" id="Path" fill="#FFFFFF"></path>
                <path d="M63.6324833,74.1399666 C63.4764345,73.4833614 63.1037181,72.8831738 62.5695511,72.3922205 C62.1638245,72.0195041 61.6848748,71.7476191 61.1705141,71.5717641 C60.6369474,72.5170595 59.9773412,73.3819297 59.2109018,74.1399666 L59.2109018,74.1417672 C57.6017989,75.7334646 55.5305516,76.8588161 53.2162285,77.302955 C53.5727399,77.3713763 53.9352532,77.4241928 54.302568,77.4596039 C54.331377,77.4626048 54.3607861,77.4638051 54.3895951,77.466206 C54.5444436,77.4800102 54.6992919,77.4926141 54.855941,77.5004167 C55.0449999,77.5094195 55.2358597,77.514221 55.4273195,77.514221 C57.0268193,77.514221 58.5518958,77.1925205 59.9395294,76.6097384 C61.3277631,76.0269562 62.5791541,75.1836928 63.6324833,74.1417672 L63.6324833,74.1399666 Z" id="Path" fill="#FFFFFF"></path>
                <path d="M57.5447812,66.2054873 L56.2309705,67.0061374 C55.746019,67.30203 55.1374289,67.30203 54.6518771,67.0061374 L53.3380666,66.2054873 C52.8855252,65.929401 52.609439,65.4372473 52.609439,64.9066815 L52.609439,61.3877819 C52.609439,60.4202796 53.3926837,59.6358344 54.3589855,59.6358344 L56.5244622,59.6358344 C57.4907642,59.6358344 58.2740089,60.4202796 58.2740089,61.3877819 L58.2740089,64.9066815 C58.2740089,65.4372473 57.9979226,65.929401 57.5447812,66.2054873 L57.5447812,66.2054873 Z" id="Path" fill="#FFFFFF"></path>
                <path d="M10.8483898,70.3059686 L4.10108143,70.3059686 C3.11017192,70.3059686 2.30472016,69.5017173 2.30472016,68.5132084 L2.30472016,4.09808053 C2.30472016,3.10897146 3.11017192,2.30472016 4.10108143,2.30472016 L38.6826873,2.30472016 C38.7673137,2.30472016 38.8513399,2.31012181 38.934766,2.31972481 L38.934766,12.3746667 C38.934766,14.6343729 40.7743408,16.4727473 43.0352473,16.4727473 L52.9179353,16.4727473 C52.9257379,16.5465703 52.9293389,16.6215938 52.9293389,16.6972174 L52.9293389,19.057755 C52.9293389,19.6945541 53.4455002,20.210115 54.081699,20.210115 C54.7184979,20.210115 55.2340591,19.6945541 55.2340591,19.057755 L55.2340591,16.6972174 C55.2340591,16.0502153 55.0990169,15.4260203 54.836735,14.8522408 C54.6176664,14.3582866 54.312171,13.9129474 53.9322523,13.5300278 L41.8942907,1.34321979 C41.5089704,0.951297215 41.0612305,0.638599544 40.5720776,0.416530231 C40.570277,0.415329779 40.5684764,0.414729629 40.5660757,0.414129327 C40.5654755,0.413529178 40.5642751,0.412929028 40.5630748,0.412328879 C40.5618745,0.41172873 40.560674,0.411128427 40.5588734,0.410528278 C39.9676888,0.13864336 39.3362915,8.73387822e-15 38.6826873,8.73387822e-15 L4.10108143,8.73387822e-15 C1.83957478,8.73387822e-15 -4.36693911e-15,1.83837448 -4.36693911e-15,4.09808053 L-4.36693911e-15,68.5132084 C-4.36693911e-15,70.7729146 1.83957478,72.6106888 4.10108143,72.6106888 L10.8483898,72.6106888 C11.4845886,72.6106888 12.0007499,72.0951276 12.0007499,71.4583287 C12.0007499,70.8221299 11.4845886,70.3059686 10.8483898,70.3059686 Z M43.0358475,14.1680272 C42.0449378,14.1680272 41.2394862,13.3631756 41.2394862,12.3746667 L41.2394862,3.96003747 L51.323237,14.1680272 L43.0358475,14.1680272 Z" id="Shape" stroke="#0C2A39" stroke-width="0.960300038" fill="#0C2A39"></path>
                <path d="M68.2545275,65.8477755 C68.2545275,58.7793669 62.4987291,53.0283698 55.4237183,53.0283698 C55.3606987,53.0283698 55.297679,53.0325712 55.2346592,53.0331713 L55.2346592,23.3370922 C55.2346592,22.7008934 54.7184979,22.1847321 54.0822991,22.1847321 C53.4455002,22.1847321 52.929939,22.7008934 52.929939,23.3370922 L52.929939,53.2738465 C51.1893952,53.617754 49.5754909,54.3145717 48.1638498,55.2856751 C46.0241813,53.8080135 43.5298019,53.02897 40.8955786,53.02897 C38.2685578,53.02897 35.7813806,53.803212 33.647714,55.2718709 C31.5104461,53.803212 29.0226688,53.02897 26.3974485,53.02897 C19.3224376,53.02897 13.5666392,58.7793669 13.5666392,65.8477755 C13.5666392,68.0042493 14.1128098,70.1367156 15.1451323,72.0135021 C15.7459202,73.107644 16.5051574,74.1081567 17.4000371,74.986231 C19.8151917,77.3599727 23.0099899,78.6677814 26.3974485,78.6677814 C29.0226688,78.6677814 31.5110464,77.8935396 33.647714,76.4242805 C35.7819808,77.8935396 38.2691579,78.6677814 40.8955786,78.6677814 C43.530402,78.6677814 46.0247814,77.8887381 48.1650501,76.4104761 C50.2308957,77.8323204 52.7312769,78.6671813 55.4237183,78.6671813 C58.888601,78.6671813 62.034184,77.2861496 64.3449059,75.0486505 C64.4127271,74.995834 64.4745464,74.9358154 64.5291635,74.8697947 C66.8302825,72.5512702 68.2545275,69.3630739 68.2545275,65.8477755 Z M65.9498073,65.8477755 C65.9498073,68.1897074 65.1785664,70.3551841 63.8773598,72.1053308 C63.7189103,71.9078691 63.5442557,71.7194103 63.3515955,71.5423549 C62.3954968,70.665481 61.1164971,70.1829302 59.7504703,70.1829302 L51.1257754,70.1829302 C49.7585481,70.1829302 48.4801487,70.6660811 47.5264506,71.5417548 C47.3271885,71.7242118 47.147132,71.9198729 46.9844813,72.1245368 C45.6742719,70.371389 44.8976293,68.1987101 44.8976293,65.8477755 C44.8976293,60.0499639 49.6199047,55.33309 55.4237183,55.33309 C61.2275319,55.33309 65.9498073,60.0499639 65.9498073,65.8477755 L65.9498073,65.8477755 Z M42.4164539,65.2211797 L41.101443,66.0218298 C40.9838062,66.0938524 40.8373605,66.0938524 40.7197237,66.0218298 L39.4047129,65.2211797 C39.2954787,65.1545589 39.2276576,65.0339212 39.2276576,64.9066815 L39.2276576,61.3877819 C39.2276576,61.0570785 39.4965416,60.7881945 39.8266446,60.7881945 L41.994522,60.7881945 C42.3246253,60.7881945 42.5929131,61.0570785 42.5929131,61.3877819 L42.5929131,64.9066815 C42.5935093,65.0345214 42.5256881,65.1545589 42.4164539,65.2211797 L42.4164539,65.2211797 Z M46.3140719,56.8311581 C45.5098204,57.6420115 44.8148033,58.5602983 44.2488264,59.560811 C43.7158599,58.9042059 42.9038062,58.4834743 41.994522,58.4834743 L39.8266446,58.4834743 C38.2259444,58.4834743 36.9235375,59.7864815 36.9235375,61.3877819 L36.9235375,64.9060813 C36.9235375,65.8327709 37.4150912,66.7078442 38.2061383,67.1891947 L39.5211492,67.990445 C39.9496831,68.2515266 40.4304334,68.3817674 40.9105834,68.3817674 C41.3913336,68.3817674 41.8720838,68.2515266 42.3006178,67.990445 L42.7327528,67.7269628 C42.858192,68.5756279 43.0664571,69.3972846 43.3503457,70.1835303 L36.5982358,70.1835303 C35.2316088,70.1835303 33.9532094,70.6660811 32.9995115,71.5411546 C32.7984486,71.7248119 32.617792,71.9222736 32.4539409,72.128138 C32.137642,71.7050058 31.8537533,71.2590664 31.6052758,70.7927207 C31.6046755,70.7915203 31.6046755,70.7909201 31.6040753,70.7897197 C31.602875,70.7885194 31.6022749,70.7867188 31.6016746,70.7855185 C30.796223,69.2766469 30.3706899,67.5697136 30.3706899,65.8477755 C30.3706899,62.6175661 31.8261448,59.6130274 34.3637377,57.6035995 C36.236923,56.1187356 38.4954288,55.3336901 40.8955786,55.3336901 C42.8371854,55.3336901 44.685763,55.848051 46.3140719,56.8311581 L46.3140719,56.8311581 Z M27.9177235,65.2211797 L26.6027126,66.0218298 C26.4850758,66.0938524 26.3386301,66.0938524 26.2209933,66.0218298 L24.9053822,65.2211797 C24.7967483,65.1545589 24.728927,65.0339212 24.728927,64.9066815 L24.728927,61.3877819 C24.728927,61.0570785 24.997811,60.7881945 25.3279142,60.7881945 L27.4951915,60.7881945 C27.8252946,60.7881945 28.0941786,61.0570785 28.0941786,61.3877819 L28.0941786,64.9066815 C28.0941786,65.0345214 28.0269576,65.1545589 27.9177235,65.2211797 Z M26.3974485,55.3336901 C28.3282518,55.3336901 30.1684267,55.8426491 31.7913338,56.8155533 C30.9768794,57.6324085 30.2848632,58.5458938 29.7254884,59.5308017 C29.1925219,58.8910017 28.3912715,58.4834743 27.4957916,58.4834743 L25.3279142,58.4834743 C23.727214,58.4834743 22.4242068,59.7858814 22.4242068,61.3877819 L22.4242068,64.9060813 C22.4242068,65.8327709 22.9157605,66.7072441 23.7068077,67.1891947 L25.0224188,67.990445 C25.4509527,68.2515266 25.931703,68.3817674 26.411853,68.3817674 C26.8926032,68.3817674 27.3727532,68.2515266 27.8012871,67.990445 L28.2082143,67.7425676 C28.3324532,68.5750277 28.5383174,69.3930834 28.8216059,70.1829302 L22.1001057,70.1829302 C20.7322783,70.1829302 19.4532786,70.665481 18.4995806,71.5411546 C18.2991179,71.7242118 18.1184615,71.9210733 17.9546103,72.1275378 C17.6635194,71.7380161 17.3988366,71.3292883 17.1647635,70.9025551 C16.318499,69.3648745 15.8707592,67.6165283 15.8707592,65.8471754 C15.8713593,60.0499639 20.5930348,55.3336901 26.3974485,55.3336901 L26.3974485,55.3336901 Z M19.5655137,73.8422736 C19.6903527,73.6280067 19.854804,73.4251432 20.056467,73.2402854 C20.5852322,72.7553339 21.3108591,72.4882505 22.1001057,72.4882505 L29.9217498,72.4882505 C30.4463136,73.3531207 31.0735095,74.1549713 31.7937346,74.8793977 C30.1702273,75.8529019 28.328852,76.3630613 26.3974485,76.3630613 C23.867658,76.3630613 21.4705089,75.4717828 19.5655137,73.8422736 Z M34.3619371,74.0913515 C34.2611056,74.0115264 34.163275,73.9269 34.0648442,73.8428737 C34.1902836,73.6280067 34.3547349,73.4251432 34.5557977,73.2402854 C35.0845629,72.7553339 35.8101896,72.4882505 36.5982358,72.4882505 L44.4522901,72.4882505 C44.9786545,73.3531207 45.6052503,74.1501698 46.314672,74.8655933 C44.6863633,75.8487006 42.8371854,76.3630613 40.8955786,76.3630613 C38.4954288,76.3630613 36.236923,75.578016 34.3619371,74.0913515 L34.3619371,74.0913515 Z M48.5941842,73.8386724 C48.7196236,73.6262061 48.8828746,73.4245431 49.0839373,73.2408858 C49.6121023,72.7553339 50.3377292,72.4876503 51.1257754,72.4876503 L59.7504703,72.4876503 C60.5385165,72.4876503 61.2641433,72.7553339 61.7935087,73.2402854 C61.9885696,73.4197416 62.1488197,73.6160029 62.2724584,73.8224674 C60.4304829,75.4039615 58.0375351,76.3624611 55.4237183,76.3624611 C52.8189044,76.3624611 50.4343593,75.4105636 48.5941842,73.8386724 L48.5941842,73.8386724 Z" id="Shape" stroke="#0C2A39" stroke-width="0.960300038" fill="#0C2A39"></path>
                <path d="M52.7336778,67.1897949 L54.0486886,67.990445 C54.4778228,68.2515266 54.9579728,68.3817674 55.438723,68.3817674 C55.918873,68.3817674 56.3996232,68.2515266 56.8281572,67.990445 L58.1431681,67.1897949 C58.9342152,66.7078442 59.4257688,65.8327709 59.4257688,64.9066815 L59.4257688,61.3877819 C59.4257688,59.7864815 58.1233618,58.4834743 56.5220616,58.4834743 L54.3547843,58.4834743 C52.753484,58.4834743 51.4510769,59.7864815 51.4510769,61.3877819 L51.4510769,64.9066815 C51.4510769,65.8327709 51.9426306,66.7078442 52.7336778,67.1897949 Z M53.7557971,61.3877819 C53.7557971,61.0570785 54.0246811,60.7881945 54.3547843,60.7881945 L56.5220616,60.7881945 C56.8521647,60.7881945 57.1210487,61.0570785 57.1210487,61.3877819 L57.1210487,64.9066815 C57.1210487,65.0345214 57.0532275,65.1545589 56.9445936,65.2211797 L55.6289825,66.0218298 C55.5113456,66.0938524 55.3655002,66.0938524 55.2472631,66.0218298 L53.9322523,65.2211797 C53.8236184,65.1545589 53.7557971,65.0345214 53.7557971,64.9066815 L53.7557971,61.3877819 Z" id="Shape" stroke="#0C2A39" stroke-width="0.960300038" fill="#0C2A39"></path>
                <path d="M10.6503279,15.3305904 C12.7089712,15.3305904 14.3846948,13.6566672 14.3846948,11.5986242 C14.3846948,9.54118131 12.7089712,7.86725829 10.6503279,7.86725829 C8.59108439,7.86725829 6.91596108,9.54118131 6.91596108,11.5986242 C6.91596108,13.6566672 8.59108439,15.3305904 10.6503279,15.3305904 Z M10.6503279,10.1719785 C11.4383741,10.1719785 12.0799747,10.8123786 12.0799747,11.5992245 C12.0799747,12.3860703 11.4383741,13.0258702 10.6503279,13.0258702 C9.86168153,13.0258702 9.22068124,12.3860703 9.22068124,11.5992245 C9.22068124,10.8123786 9.86168153,10.1719785 10.6503279,10.1719785 Z" id="Shape" fill="#0C2A39"></path>
                <path d="M47.9279762,22.1847321 L8.06832116,22.1847321 C7.43212236,22.1847321 6.91596108,22.7008934 6.91596108,23.3370922 C6.91596108,23.9738912 7.43212236,24.4894523 8.06832116,24.4894523 L47.9279762,24.4894523 C48.5641749,24.4894523 49.0803362,23.9738912 49.0803362,23.3370922 C49.0803362,22.7008934 48.5647751,22.1847321 47.9279762,22.1847321 Z" id="Path" stroke="#0C2A39" stroke-width="0.960300038" fill="#0C2A39"></path>
                <path d="M47.9279762,28.6691583 L8.06832116,28.6691583 C7.43212236,28.6691583 6.91596108,29.1847193 6.91596108,29.8215184 C6.91596108,30.4577172 7.43212236,30.9738785 8.06832116,30.9738785 L47.9279762,30.9738785 C48.5641749,30.9738785 49.0803362,30.4577172 49.0803362,29.8215184 C49.0803362,29.1847193 48.5647751,28.6691583 47.9279762,28.6691583 Z" id="Path" stroke="#0C2A39" stroke-width="0.960300038" fill="#0C2A39"></path>
                <path d="M47.9279762,35.1529842 L8.06832116,35.1529842 C7.43212236,35.1529842 6.91596108,35.6691457 6.91596108,36.3053443 C6.91596108,36.9415432 7.43212236,37.4577044 8.06832116,37.4577044 L47.9279762,37.4577044 C48.5641749,37.4577044 49.0803362,36.9415432 49.0803362,36.3053443 C49.0803362,35.6691457 48.5647751,35.1529842 47.9279762,35.1529842 Z" id="Path" stroke="#0C2A39" stroke-width="0.960300038" fill="#0C2A39"></path>
                <path d="M49.0803362,42.7891703 C49.0803362,42.1529716 48.5647751,41.6368103 47.9279762,41.6368103 L8.06832116,41.6368103 C7.43212236,41.6368103 6.91596108,42.1529716 6.91596108,42.7891703 C6.91596108,43.4259693 7.43212236,43.9415304 8.06832116,43.9415304 L47.9279762,43.9415304 C48.5647751,43.9415304 49.0803362,43.4259693 49.0803362,42.7891703 Z" id="Path" stroke="#0C2A39" stroke-width="0.960300038" fill="#0C2A39"></path>
                <path d="M8.06832116,48.1212365 C7.43212236,48.1212365 6.91596108,48.6367976 6.91596108,49.2735965 C6.91596108,49.9097953 7.43212236,50.4259566 8.06832116,50.4259566 L26.1807807,50.4259566 C26.8169795,50.4259566 27.3331408,49.9097953 27.3331408,49.2735965 C27.3331408,48.6367976 26.8169795,48.1212365 26.1807807,48.1212365 L8.06832116,48.1212365 Z" id="Path" stroke="#0C2A39" stroke-width="0.960300038" fill="#0C2A39"></path>
            </g>
        </g>
    </g>
</svg>