<?xml version="1.0" encoding="UTF-8"?>
<svg width="84px" height="72px" viewBox="0 0 84 72" version="1.1" xmlns="http://www.w3.org/2000/svg" xmlns:xlink="http://www.w3.org/1999/xlink">
    <title>responsive</title>
    <g id="Page-1" stroke="none" stroke-width="1" fill="none" fill-rule="evenodd">
        <g id="Artboard" transform="translate(-814.000000, -1146.000000)" fill-rule="nonzero">
            <g id="responsive" transform="translate(815.000000, 1147.000000)">
                <polygon id="Path" fill="#FFFFFF" points="41.7303125 68.9541523 29.0006133 68.9541523 30.0666133 64.5141406 31.0960977 60.2307617 39.6362695 60.2307617 40.6644727 64.5141406"></polygon>
                <polygon id="Path" fill="#FFFFFF" points="40.6644727 64.5141406 30.0666133 64.5141406 31.0960977 60.2307617 35.1450078 55.8205391 39.6362695 60.2307617"></polygon>
                <path d="M69.3116211,14.4683555 L69.3116211,55.7382187 C69.3116211,58.2193594 67.3000586,60.2307617 64.8190781,60.2307617 L5.91360937,60.2307617 C3.43246875,60.2307617 1.42106641,58.2191992 1.42106641,55.7382187 L1.42106641,14.4683555 C1.42106641,11.9872148 3.43262891,9.9758125 5.91360937,9.9758125 L64.8190781,9.9758125 C67.3000586,9.9758125 69.3116211,11.987375 69.3116211,14.4683555 Z" id="Path" fill="#82D9D9"></path>
                <path d="M69.3116211,14.4685156 L69.3116211,55.7383789 C69.3116211,58.2195195 67.3000586,60.2309219 64.8190781,60.2309219 L28.7288281,60.2309219 L42.819375,9.97613281 L64.8190781,9.97613281 C67.3002187,9.97613281 69.3116211,11.9875352 69.3116211,14.4685156 Z" id="Path" fill="#E6E6E6"></path>
                <rect id="Rectangle" fill="#FFFFFF" x="1.42090625" y="16.1381445" width="67.8907148" height="37.9291641"></rect>
                <polygon id="Path" fill="#FFFFFF" points="69.3116211 16.1391055 69.3116211 54.0677891 30.4570742 54.0677891 41.0912891 16.1391055"></polygon>
                <path d="M80.559875,4.55019922 L80.559875,38.6348125 C80.559875,40.3382344 79.179168,41.7170195 77.477668,41.7170195 L60.5976797,41.7170195 C58.8942578,41.7170195 57.5154727,40.3382344 57.5154727,38.6348125 L57.5154727,4.55019922 C57.5154727,2.84677734 58.8942578,1.46799219 60.5976797,1.46799219 L77.477668,1.46799219 C79.179168,1.46799219 80.559875,2.84677734 80.559875,4.55019922 Z" id="Path" fill="#82D9D9"></path>
                <path d="M80.559875,4.55019922 L80.559875,38.6348125 C80.559875,40.3382344 79.179168,41.7170195 77.477668,41.7170195 L62.8733398,41.7170195 L74.1574687,1.46815234 L77.4778281,1.46815234 C79.179168,1.46815234 80.559875,2.84677734 80.559875,4.55019922 Z" id="Path" fill="#FFFFFF"></path>
                <rect id="Rectangle" fill="#FFFFFF" x="57.5149922" y="9.26311719" width="23.0444023" height="24.659418"></rect>
                <polygon id="Path" fill="#FFFFFF" points="80.559875 9.26279688 80.559875 33.9222148 65.0586719 33.9222148 71.9719766 9.26279688"></polygon>
                <path d="M1.44028516,21.6833945 C2.23562109,21.6833945 2.88057031,21.0386055 2.88057031,20.2431094 L2.88057031,14.7124336 C2.88057031,13.0394414 4.24173828,11.6782734 5.91473047,11.6782734 L53.0986836,11.6782734 C53.8943398,11.6782734 54.5389688,11.0334844 54.5389688,10.2379883 C54.5389688,9.44265234 53.8943398,8.79770313 53.0986836,8.79770313 L5.91473047,8.79770313 C2.65330859,8.79770313 0,11.4510117 0,14.7124336 L0,20.2431094 C0,21.0384453 0.644789062,21.6833945 1.44028516,21.6833945 Z" id="Path" stroke="#0C2A39" stroke-width="0.5" fill="#0C2A39"></path>
                <path d="M69.0353516,44.5035781 C68.2396953,44.5035781 67.5950664,45.1483672 67.5950664,45.9438633 L67.5950664,55.7997187 C67.5950664,57.4719102 66.2345391,58.8325977 64.5620273,58.8325977 L5.91344922,58.8325977 C4.24125781,58.8325977 2.88057031,57.4720703 2.88057031,55.7997187 L2.88057031,24.99975 C2.88057031,24.2044141 2.23578125,23.5594648 1.44028516,23.5594648 C0.644789062,23.5594648 0,24.2044141 0,24.99975 L0,55.7997187 C0,59.0603398 2.65282812,61.713168 5.91344922,61.713168 L29.1593281,61.713168 L27.7656484,67.5180312 L22.1158164,67.5180312 C21.3204805,67.5180312 20.6755312,68.1628203 20.6755312,68.9583164 C20.6755312,69.7538125 21.3203203,70.3986016 22.1158164,70.3986016 L28.9009961,70.3986016 L41.5743203,70.3986016 L48.3595,70.3986016 C49.1551562,70.3986016 49.7997852,69.7538125 49.7997852,68.9583164 C49.7997852,68.1628203 49.1551562,67.5180312 48.3595,67.5180312 L42.7098281,67.5180312 L41.3161484,61.713168 L64.5620273,61.713168 C67.8226484,61.713168 70.4756367,59.0603398 70.4756367,55.7997187 L70.4756367,45.9438633 C70.4756367,45.1485273 69.8308477,44.5035781 69.0353516,44.5035781 Z M39.7475781,67.5181914 L30.7282187,67.5181914 L32.1218984,61.7133281 L38.3540586,61.7133281 L39.7475781,67.5181914 Z" id="Shape" stroke="#0C2A39" stroke-width="0.5" fill="#0C2A39"></path>
                <path d="M5.59425781,55.5767813 L64.8815391,55.5767813 C65.6771953,55.5767813 66.3218242,54.9319922 66.3218242,54.1364961 C66.3218242,53.341 65.6771953,52.6962109 64.8815391,52.6962109 L5.59425781,52.6962109 C4.79892187,52.6962109 4.15397266,53.341 4.15397266,54.1364961 C4.15397266,54.9319922 4.79876172,55.5767813 5.59425781,55.5767813 Z" id="Path" stroke="#0C2A39" stroke-width="0.5" fill="#0C2A39"></path>
                <path d="M54.5389688,16.3735742 C54.5389688,15.5782383 53.8943398,14.9332891 53.0986836,14.9332891 L5.59601953,14.9332891 C4.80068359,14.9332891 4.15573438,15.5780781 4.15573438,16.3735742 C4.15573438,17.1690703 4.80052344,17.8138594 5.59601953,17.8138594 L53.0986836,17.8138594 C53.8943398,17.8138594 54.5389688,17.1689102 54.5389688,16.3735742 Z" id="Path" stroke="#0C2A39" stroke-width="0.5" fill="#0C2A39"></path>
                <path d="M53.3485273,25.3601016 L49.7712773,21.7830117 C49.2086484,21.220543 48.2968789,21.220543 47.7344102,21.7830117 C47.1719414,22.3454805 47.1719414,23.2574102 47.7344102,23.8198789 L48.8527812,24.93825 L36.2851602,24.93825 C35.4896641,24.93825 34.844875,25.5830391 34.844875,26.3785352 C34.844875,27.1740312 35.4896641,27.8188203 36.2851602,27.8188203 L48.8527812,27.8188203 L47.7344102,28.9371914 C47.1719414,29.4996602 47.1719414,30.4115898 47.7344102,30.9740586 C48.0158047,31.2554531 48.3843242,31.3959102 48.7530039,31.3959102 C49.1215234,31.3959102 49.4902031,31.255293 49.7715977,30.9740586 L53.3488477,27.3969687 C53.6188711,27.1267852 53.7705391,26.7605078 53.7705391,26.3785352 C53.7705391,25.9968828 53.6185508,25.6302852 53.3485273,25.3601016 Z" id="Path" fill="#82D9D9"></path>
                <path d="M53.7702187,36.556625 C53.7702187,35.7612891 53.1255898,35.1163398 52.3299336,35.1163398 L39.7621523,35.1163398 L40.8805234,33.9979687 C41.4429922,33.4355 41.4429922,32.5237305 40.8805234,31.9612617 C40.3180547,31.398793 39.406125,31.398793 38.8438164,31.9612617 L35.2667266,35.5383516 C34.7042578,36.1008203 34.7042578,37.0125898 35.2667266,37.5750586 L38.8438164,41.1521484 C39.1248906,41.433543 39.4937305,41.574 39.86225,41.574 C40.2307695,41.574 40.5994492,41.4333828 40.8806836,41.1521484 C41.4431523,40.5896797 41.4431523,39.6779102 40.8806836,39.1154414 L39.7623125,37.9970703 L52.3300938,37.9970703 C53.1255898,37.99675 53.7702187,37.3519609 53.7702187,36.556625 Z" id="Path" fill="#82D9D9"></path>
                <path d="M76.4464219,7.86559375 L61.6274844,7.86559375 C60.8318281,7.86559375 60.1871992,8.51038281 60.1871992,9.30587891 C60.1871992,10.1012148 60.8318281,10.7461641 61.6274844,10.7461641 L76.4464219,10.7461641 C77.2420781,10.7461641 77.886707,10.101375 77.886707,9.30587891 C77.886707,8.51038281 77.2420781,7.86559375 76.4464219,7.86559375 Z" id="Path" fill="#0C2A39"></path>
                <path d="M77.886707,33.9640156 C77.886707,33.1686797 77.2420781,32.5237305 76.4464219,32.5237305 L61.6274844,32.5237305 C60.8318281,32.5237305 60.1871992,33.1685195 60.1871992,33.9640156 C60.1871992,34.7595117 60.8318281,35.4043008 61.6274844,35.4043008 L76.4464219,35.4043008 C77.2420781,35.4043008 77.886707,34.7595117 77.886707,33.9640156 Z" id="Path" fill="#0C2A39"></path>
                <circle id="Oval" fill="#0C2A39" cx="69.0371133" cy="37.8362734" r="1.44028516"></circle>
                <path d="M80.5597148,28.1591523 C81.3553711,28.1591523 82,27.5143633 82,26.7188672 L82,4.59280078 C82,2.09900781 79.9713008,0.0701484375 77.4773477,0.0701484375 L60.5976797,0.0701484375 C58.1038867,0.0701484375 56.0750273,2.09900781 56.0750273,4.59280078 L56.0750273,38.678375 C56.0750273,41.172168 58.1037266,43.2010273 60.5976797,43.2010273 L77.4773477,43.2010273 C79.9711406,43.2010273 82,41.172168 82,38.678375 L82,31.0398828 C82,30.2445469 81.3553711,29.5995977 80.5597148,29.5995977 C79.7640586,29.5995977 79.1194297,30.2443867 79.1194297,31.0398828 L79.1194297,38.678375 C79.1194297,39.5838984 78.3827109,40.320457 77.4773477,40.320457 L60.5976797,40.320457 C59.6921562,40.320457 58.9555977,39.5837383 58.9555977,38.678375 L58.9555977,4.59280078 C58.9555977,3.68727734 59.6923164,2.95071875 60.5976797,2.95071875 L77.4773477,2.95071875 C78.3828711,2.95071875 79.1194297,3.6874375 79.1194297,4.59280078 L79.1194297,26.7190273 C79.1194297,27.5143633 79.7643789,28.1591523 80.5597148,28.1591523 Z" id="Path" stroke="#0C2A39" stroke-width="0.5" fill="#0C2A39"></path>
            </g>
        </g>
    </g>
</svg>