<svg width="80" height="64" viewBox="0 0 80 64" fill="none" xmlns="http://www.w3.org/2000/svg">
<rect width="80" height="64" fill="white"/>
<path d="M13.5745 39.8062H10L16.503 26.0027C16.8476 25.2705 17.3428 24.7537 17.9673 24.4522C18.6133 24.1507 19.4315 24 20.4221 24C21.3911 24 22.1878 24.1507 22.8338 24.4522C23.4582 24.7537 23.9535 25.2705 24.2765 26.0027L30.5426 39.8062H26.9251L21.2834 27.3163C21.1111 26.9717 20.8097 26.7779 20.379 26.7779C19.9483 26.7779 19.6253 26.9502 19.4531 27.3163L13.5745 39.8062Z" fill="#B1C908"/>
<path d="M43.1179 24.4307C44.3237 24.4307 45.3357 24.5383 46.1972 24.7321C47.0369 24.9475 47.7475 25.2274 48.2859 25.6151C48.8242 25.9811 49.2332 26.4334 49.4917 26.9717C49.7501 27.4885 49.8793 28.07 49.8793 28.6945C49.8793 29.5989 49.6423 30.3311 49.147 30.891C48.6517 31.4508 47.9412 31.86 46.9722 32.1615C47.9197 32.463 48.6734 32.9152 49.1901 33.4751C49.707 34.0565 49.9654 34.7887 49.9654 35.6931C49.9654 36.3176 49.8362 36.899 49.5779 37.4159C49.3193 37.9327 48.9103 38.3849 48.372 38.7725C47.812 39.1386 47.123 39.4401 46.2833 39.6554C45.4435 39.8708 44.4099 39.9784 43.204 39.9784H34.2247C33.1049 39.9784 32.5449 39.5478 32.5449 38.7079V25.7012C32.5449 24.8614 33.1049 24.4307 34.2247 24.4307H43.1179ZM36.0334 30.9986H43.2254C45.2927 30.9986 46.3477 30.3741 46.3477 29.1251C46.3477 28.5222 46.111 28.0269 45.6157 27.6608C45.1204 27.2947 44.3452 27.1009 43.2684 27.1009H36.4426C36.1842 27.1009 36.055 27.1871 36.055 27.3809V30.9986H36.0334ZM36.0334 37.0282C36.0334 37.2005 36.1626 37.2867 36.4209 37.2867H43.3115C44.3882 37.2867 45.1849 37.1144 45.6802 36.7483C46.1755 36.4037 46.4339 35.8869 46.4339 35.2624C46.4339 33.9273 45.4002 33.2597 43.3115 33.2597H36.0334V37.0282Z" fill="#B1C908"/>
<path d="M64.4147 24.4307C65.513 24.4307 66.4603 24.5599 67.2356 24.8183C68.0323 25.0767 68.6782 25.3997 69.1735 25.8304C69.6904 26.2611 70.0563 26.7564 70.2933 27.3163C70.5302 27.8762 70.6594 28.4791 70.6594 29.0821C70.6594 29.5774 70.5733 30.0511 70.4224 30.5464C70.2719 31.0202 70.0349 31.4724 69.7118 31.9031C69.3888 32.3338 68.9582 32.6999 68.4415 33.0229C68.0323 33.2813 67.5587 33.4751 67.0203 33.6258C66.7834 33.6904 66.6973 33.9704 66.8264 34.1642L70.6594 39.4186C70.8316 39.6554 70.6594 39.9569 70.3794 39.9569H67.4509C67.3431 39.9569 67.2356 39.9139 67.1709 39.8277L62.9504 34.1211C62.886 34.035 62.7782 33.9919 62.6704 33.9919H57.761C57.438 33.9919 57.2657 34.1211 57.2657 34.3795V39.6554C57.2657 39.8492 57.1149 40 56.9213 40H54.2081C54.0142 40 53.8634 39.8492 53.8634 39.6554V33.8412C53.8634 32.9583 54.1003 32.3338 54.574 31.9461C55.0478 31.5585 55.8229 31.3647 56.9213 31.3647H64.5008C64.9747 31.3647 65.4053 31.3001 65.7497 31.1709C66.0942 31.0417 66.3742 30.891 66.5895 30.6971C66.8048 30.5033 66.9556 30.2665 67.0634 30.0081C67.1709 29.7496 67.214 29.4697 67.214 29.2113C67.214 28.6514 66.9987 28.1776 66.5681 27.7685C66.1373 27.3593 65.4483 27.1655 64.5008 27.1655H54.165C53.9711 27.1655 53.8203 27.0148 53.8203 26.821V24.7752C53.8203 24.5814 53.9711 24.4307 54.165 24.4307H64.4147Z" fill="#B1C908"/>
</svg>
