<svg width="295" height="79" viewBox="0 0 295 79" fill="none" xmlns="http://www.w3.org/2000/svg">
<path d="M17.3515 77.3098H0L31.5671 10.5457C33.2395 7.00435 35.6437 4.5046 38.6749 3.04642C41.8107 1.58822 45.7828 0.859131 50.5911 0.859131C55.2947 0.859131 59.1622 1.58822 62.2981 3.04642C65.3293 4.5046 67.7334 7.00435 69.3013 10.5457L99.7183 77.3098H82.1581L54.7721 16.8992C53.9359 15.2327 52.4726 14.2953 50.3819 14.2953C48.2914 14.2953 46.7236 15.1286 45.8873 16.8992L17.3515 77.3098Z" fill="#B1C908"/>
<path d="M161.133 2.35217C167 2.35217 171.924 2.87011 176.115 3.80238C180.201 4.83822 183.659 6.18485 186.278 8.04938C188.898 9.81034 190.887 11.9856 192.145 14.5753C193.402 17.0613 194.031 19.8582 194.031 22.8621C194.031 27.2126 192.878 30.7346 190.468 33.4278C188.058 36.121 184.601 38.0891 179.886 39.5393C184.497 40.9895 188.164 43.1649 190.678 45.8581C193.193 48.6549 194.45 52.1768 194.45 56.5273C194.45 59.5313 193.821 62.3282 192.564 64.8142C191.306 67.3003 189.317 69.4756 186.697 71.3401C183.972 73.1011 180.62 74.5513 176.534 75.5871C172.448 76.623 167.419 77.1409 161.552 77.1409H117.862C112.414 77.1409 109.689 75.0692 109.689 71.0294V8.46372C109.689 4.42389 112.414 2.35217 117.862 2.35217H161.133ZM126.663 33.9457H161.656C171.715 33.9457 176.848 30.9418 176.848 24.9338C176.848 22.0334 175.696 19.6509 173.286 17.89C170.877 16.129 167.104 15.1967 161.866 15.1967H128.654C127.397 15.1967 126.768 15.6111 126.768 16.5434V33.9457H126.663ZM126.663 62.9496C126.663 63.7784 127.291 64.1927 128.548 64.1927H162.075C167.314 64.1927 171.19 63.364 173.6 61.6031C176.01 59.9457 177.267 57.4596 177.267 54.4556C177.267 48.0333 172.238 44.8222 162.075 44.8222H126.663V62.9496Z" fill="#B1C908"/>
<path d="M264.281 3.35217C269.625 3.35217 274.234 3.97283 278.006 5.21414C281.883 6.45545 285.025 8.00708 287.435 10.0759C289.95 12.1448 291.731 14.5239 292.884 17.2134C294.036 19.903 294.665 22.7994 294.665 25.6958C294.665 28.0748 294.246 30.3506 293.512 32.7298C292.779 35.0055 291.627 37.1778 290.055 39.2467C288.483 41.3155 286.388 43.0741 283.874 44.6257C281.883 45.8669 279.578 46.7979 276.959 47.5221C275.806 47.8323 275.387 49.1771 276.015 50.1081L294.665 75.348C295.503 76.4859 294.665 77.9341 293.303 77.9341H279.054C278.529 77.9341 278.006 77.7272 277.691 77.3134L257.156 49.9012C256.842 49.4875 256.318 49.2805 255.794 49.2805H231.906C230.335 49.2805 229.497 49.9012 229.497 51.1425V76.4859C229.497 77.4169 228.763 78.1409 227.82 78.1409H214.619C213.676 78.1409 212.942 77.4169 212.942 76.4859V48.5565C212.942 44.3153 214.095 41.3155 216.399 39.4535C218.705 37.5916 222.476 36.6606 227.82 36.6606H264.7C267.005 36.6606 269.1 36.3503 270.776 35.7296C272.453 35.109 273.815 34.3849 274.862 33.4539C275.91 32.5229 276.644 31.385 277.168 30.1438C277.691 28.9024 277.901 27.5576 277.901 26.3164C277.901 23.6268 276.853 21.3512 274.758 19.3858C272.662 17.4203 269.31 16.4894 264.7 16.4894H214.41C213.466 16.4894 212.732 15.7653 212.732 14.8343V5.00726C212.732 4.07627 213.466 3.35217 214.41 3.35217H264.281Z" fill="#B1C908"/>
</svg>
