<svg width="32" height="32" viewBox="0 0 32 32" fill="none" xmlns="http://www.w3.org/2000/svg">
<path d="M0 0H32V32H0V0Z" fill="white"/>
<path d="M18.5743 16.3745L18.452 16.4588L18.5924 16.5072C19.7131 16.894 20.7405 17.5329 21.6038 18.3962C23.0831 19.8754 23.9054 21.8361 23.9247 23.925H22.8246C22.7842 20.196 19.7384 17.175 16 17.175C12.2616 17.175 9.21576 20.196 9.17541 23.925H8.07535C8.09458 21.8361 8.91694 19.8754 10.3962 18.3962C11.2595 17.5329 12.2869 16.894 13.4077 16.5072L13.548 16.4588L13.4257 16.3745C12.2331 15.5532 11.45 14.1788 11.45 12.625C11.45 10.1162 13.4912 8.075 16 8.075C18.5088 8.075 20.55 10.1162 20.55 12.625C20.55 14.1788 19.7669 15.5532 18.5743 16.3745ZM12.55 12.625C12.55 14.5274 14.0976 16.075 16 16.075C17.9024 16.075 19.45 14.5274 19.45 12.625C19.45 10.7226 17.9024 9.175 16 9.175C14.0976 9.175 12.55 10.7226 12.55 12.625Z" fill="#132144" stroke="white" stroke-width="0.15"/>
</svg>
