<svg width="42" height="42" viewBox="0 0 42 42" fill="none" xmlns="http://www.w3.org/2000/svg">
<path d="M21 41.5C9.67816 41.5 0.5 32.3218 0.5 21C0.5 9.67816 9.67816 0.5 21 0.5C32.3218 0.5 41.5 9.67816 41.5 21C41.5 32.3218 32.3218 41.5 21 41.5Z" fill="white" stroke="#94B728"/>
<mask id="path-2-inside-1" fill="white">
<path fill-rule="evenodd" clip-rule="evenodd" d="M26.1429 18.7143V17.5714C26.4819 17.5714 26.8133 17.4709 27.0953 17.2825C27.3772 17.0942 27.5969 16.8264 27.7267 16.5132C27.8564 16.1999 27.8903 15.8552 27.8242 15.5227C27.7581 15.1902 27.5948 14.8847 27.355 14.645C27.1153 14.4052 26.8098 14.2419 26.4773 14.1758C26.1448 14.1097 25.8001 14.1436 25.4868 14.2734C25.1736 14.4031 24.9058 14.6228 24.7175 14.9047C24.5291 15.1867 24.4286 15.5181 24.4286 15.8571H23.2857C23.2857 15.2921 23.4533 14.7397 23.7672 14.2698C24.0812 13.7999 24.5274 13.4337 25.0495 13.2175C25.5715 13.0012 26.146 12.9447 26.7003 13.0549C27.2545 13.1651 27.7636 13.4373 28.1632 13.8368C28.5627 14.2364 28.8349 14.7455 28.9451 15.2997C29.0553 15.854 28.9988 16.4285 28.7825 16.9505C28.5663 17.4726 28.2001 17.9188 27.7302 18.2328C27.2603 18.5467 26.7079 18.7143 26.1429 18.7143ZM15.8571 18.7143C15.2921 18.7143 14.7397 18.5467 14.2698 18.2328C13.7999 17.9188 13.4337 17.4726 13.2175 16.9505C13.0012 16.4285 12.9447 15.854 13.0549 15.2997C13.1651 14.7455 13.4373 14.2364 13.8368 13.8368C14.2364 13.4373 14.7455 13.1651 15.2997 13.0549C15.854 12.9447 16.4285 13.0012 16.9505 13.2175C17.4726 13.4337 17.9188 13.7999 18.2328 14.2698C18.5467 14.7397 18.7143 15.2921 18.7143 15.8571H17.5714C17.5714 15.5181 17.4709 15.1867 17.2825 14.9047C17.0942 14.6228 16.8264 14.4031 16.5132 14.2734C16.1999 14.1436 15.8552 14.1097 15.5227 14.1758C15.1902 14.2419 14.8847 14.4052 14.645 14.645C14.4052 14.8847 14.2419 15.1902 14.1758 15.5227C14.1097 15.8552 14.1436 16.1999 14.2734 16.5132C14.4031 16.8264 14.6228 17.0942 14.9047 17.2825C15.1867 17.4709 15.5181 17.5714 15.8571 17.5714V18.7143ZM13.8368 28.1632C14.3727 28.699 15.0994 29 15.8571 29C16.6147 28.9992 17.341 28.698 17.8766 28.1623C18.4123 27.6267 18.7135 26.9004 18.7143 26.1429H17.5714C17.5714 26.4819 17.4709 26.8133 17.2825 27.0953C17.0942 27.3772 16.8264 27.5969 16.5132 27.7267C16.1999 27.8564 15.8552 27.8903 15.5227 27.8242C15.1902 27.7581 14.8847 27.5948 14.645 27.355C14.4052 27.1153 14.2419 26.8098 14.1758 26.4773C14.1097 26.1448 14.1436 25.8001 14.2733 25.4868C14.4031 25.1736 14.6228 24.9058 14.9047 24.7175C15.1866 24.5291 15.5181 24.4286 15.8571 24.4286V23.2857C15.0994 23.2857 14.3727 23.5867 13.8368 24.1226C13.301 24.6584 13 25.3851 13 26.1429C13 26.9006 13.301 27.6273 13.8368 28.1632ZM26.1429 29C25.3853 28.9992 24.659 28.698 24.1234 28.1623C23.5877 27.6267 23.2865 26.9004 23.2857 26.1429H24.4286C24.4286 26.4819 24.5291 26.8133 24.7175 27.0953C24.9058 27.3772 25.1736 27.5969 25.4868 27.7267C25.8001 27.8564 26.1448 27.8903 26.4773 27.8242C26.8098 27.7581 27.1153 27.5948 27.355 27.355C27.5948 27.1153 27.7581 26.8098 27.8242 26.4773C27.8903 26.1448 27.8564 25.8001 27.7267 25.4868C27.5969 25.1736 27.3772 24.9058 27.0953 24.7175C26.8133 24.5291 26.4819 24.4286 26.1429 24.4286V23.2857C26.9006 23.2857 27.6273 23.5867 28.1632 24.1226C28.699 24.6584 29 25.3851 29 26.1429C29 26.9006 28.699 27.6273 28.1632 28.1632C27.6273 28.699 26.9006 29 26.1429 29ZM23.2856 19.5223V22.4777L26.5473 25.7389C26.6514 25.8466 26.709 25.991 26.7077 26.1408C26.7064 26.2906 26.6463 26.4339 26.5403 26.5399C26.4344 26.6458 26.2911 26.7059 26.1412 26.7072C25.9914 26.7085 25.8471 26.6509 25.7393 26.5469L23.1679 23.9754C23.024 24.4378 22.736 24.842 22.346 25.1291C21.956 25.4162 21.4844 25.571 21.0002 25.571C20.5159 25.571 20.0443 25.4162 19.6543 25.1291C19.2644 24.842 18.9764 24.4378 18.8324 23.9754L16.261 26.5469C16.1539 26.654 16.0085 26.7142 15.857 26.7142C15.7055 26.7142 15.5602 26.654 15.453 26.5469C15.3459 26.4397 15.2857 26.2944 15.2857 26.1429C15.2857 25.9913 15.3459 25.846 15.453 25.7389L18.7142 22.4777V19.5223L15.453 16.2611C15.3459 16.154 15.2857 16.0087 15.2857 15.8571C15.2857 15.7056 15.3459 15.5603 15.453 15.4531C15.5602 15.346 15.7055 15.2858 15.857 15.2858C16.0085 15.2858 16.1539 15.346 16.261 15.4531L18.8319 18.0246C18.9758 17.5622 19.2638 17.1579 19.6538 16.8709C20.0438 16.5838 20.5153 16.429 20.9996 16.429C21.4838 16.429 21.9554 16.5838 22.3454 16.8709C22.7354 17.1579 23.0234 17.5622 23.1673 18.0246L25.7387 15.4531C25.7914 15.3986 25.8545 15.355 25.9242 15.3251C25.9939 15.2951 26.0689 15.2794 26.1448 15.2787C26.2207 15.278 26.2959 15.2925 26.3661 15.3212C26.4364 15.35 26.5002 15.3924 26.5538 15.4461C26.6075 15.4997 26.6499 15.5635 26.6786 15.6337C26.7074 15.704 26.7218 15.7792 26.7212 15.8551C26.7205 15.931 26.7047 16.0059 26.6748 16.0757C26.6448 16.1454 26.6013 16.2084 26.5467 16.2611L23.2856 19.5223ZM21.808 24.0938C22.0223 23.8795 22.1427 23.5888 22.1427 23.2857V18.7143C22.1427 18.4112 22.0223 18.1205 21.808 17.9062C21.5937 17.6918 21.303 17.5714 20.9999 17.5714C20.6968 17.5714 20.4061 17.6918 20.1918 17.9062C19.9774 18.1205 19.857 18.4112 19.857 18.7143V23.2857C19.857 23.5888 19.9774 23.8795 20.1918 24.0938C20.4061 24.3082 20.6968 24.4286 20.9999 24.4286C21.303 24.4286 21.5937 24.3082 21.808 24.0938Z"/>
</mask>
<path fill-rule="evenodd" clip-rule="evenodd" d="M26.1429 18.7143V17.5714C26.4819 17.5714 26.8133 17.4709 27.0953 17.2825C27.3772 17.0942 27.5969 16.8264 27.7267 16.5132C27.8564 16.1999 27.8903 15.8552 27.8242 15.5227C27.7581 15.1902 27.5948 14.8847 27.355 14.645C27.1153 14.4052 26.8098 14.2419 26.4773 14.1758C26.1448 14.1097 25.8001 14.1436 25.4868 14.2734C25.1736 14.4031 24.9058 14.6228 24.7175 14.9047C24.5291 15.1867 24.4286 15.5181 24.4286 15.8571H23.2857C23.2857 15.2921 23.4533 14.7397 23.7672 14.2698C24.0812 13.7999 24.5274 13.4337 25.0495 13.2175C25.5715 13.0012 26.146 12.9447 26.7003 13.0549C27.2545 13.1651 27.7636 13.4373 28.1632 13.8368C28.5627 14.2364 28.8349 14.7455 28.9451 15.2997C29.0553 15.854 28.9988 16.4285 28.7825 16.9505C28.5663 17.4726 28.2001 17.9188 27.7302 18.2328C27.2603 18.5467 26.7079 18.7143 26.1429 18.7143ZM15.8571 18.7143C15.2921 18.7143 14.7397 18.5467 14.2698 18.2328C13.7999 17.9188 13.4337 17.4726 13.2175 16.9505C13.0012 16.4285 12.9447 15.854 13.0549 15.2997C13.1651 14.7455 13.4373 14.2364 13.8368 13.8368C14.2364 13.4373 14.7455 13.1651 15.2997 13.0549C15.854 12.9447 16.4285 13.0012 16.9505 13.2175C17.4726 13.4337 17.9188 13.7999 18.2328 14.2698C18.5467 14.7397 18.7143 15.2921 18.7143 15.8571H17.5714C17.5714 15.5181 17.4709 15.1867 17.2825 14.9047C17.0942 14.6228 16.8264 14.4031 16.5132 14.2734C16.1999 14.1436 15.8552 14.1097 15.5227 14.1758C15.1902 14.2419 14.8847 14.4052 14.645 14.645C14.4052 14.8847 14.2419 15.1902 14.1758 15.5227C14.1097 15.8552 14.1436 16.1999 14.2734 16.5132C14.4031 16.8264 14.6228 17.0942 14.9047 17.2825C15.1867 17.4709 15.5181 17.5714 15.8571 17.5714V18.7143ZM13.8368 28.1632C14.3727 28.699 15.0994 29 15.8571 29C16.6147 28.9992 17.341 28.698 17.8766 28.1623C18.4123 27.6267 18.7135 26.9004 18.7143 26.1429H17.5714C17.5714 26.4819 17.4709 26.8133 17.2825 27.0953C17.0942 27.3772 16.8264 27.5969 16.5132 27.7267C16.1999 27.8564 15.8552 27.8903 15.5227 27.8242C15.1902 27.7581 14.8847 27.5948 14.645 27.355C14.4052 27.1153 14.2419 26.8098 14.1758 26.4773C14.1097 26.1448 14.1436 25.8001 14.2733 25.4868C14.4031 25.1736 14.6228 24.9058 14.9047 24.7175C15.1866 24.5291 15.5181 24.4286 15.8571 24.4286V23.2857C15.0994 23.2857 14.3727 23.5867 13.8368 24.1226C13.301 24.6584 13 25.3851 13 26.1429C13 26.9006 13.301 27.6273 13.8368 28.1632ZM26.1429 29C25.3853 28.9992 24.659 28.698 24.1234 28.1623C23.5877 27.6267 23.2865 26.9004 23.2857 26.1429H24.4286C24.4286 26.4819 24.5291 26.8133 24.7175 27.0953C24.9058 27.3772 25.1736 27.5969 25.4868 27.7267C25.8001 27.8564 26.1448 27.8903 26.4773 27.8242C26.8098 27.7581 27.1153 27.5948 27.355 27.355C27.5948 27.1153 27.7581 26.8098 27.8242 26.4773C27.8903 26.1448 27.8564 25.8001 27.7267 25.4868C27.5969 25.1736 27.3772 24.9058 27.0953 24.7175C26.8133 24.5291 26.4819 24.4286 26.1429 24.4286V23.2857C26.9006 23.2857 27.6273 23.5867 28.1632 24.1226C28.699 24.6584 29 25.3851 29 26.1429C29 26.9006 28.699 27.6273 28.1632 28.1632C27.6273 28.699 26.9006 29 26.1429 29ZM23.2856 19.5223V22.4777L26.5473 25.7389C26.6514 25.8466 26.709 25.991 26.7077 26.1408C26.7064 26.2906 26.6463 26.4339 26.5403 26.5399C26.4344 26.6458 26.2911 26.7059 26.1412 26.7072C25.9914 26.7085 25.8471 26.6509 25.7393 26.5469L23.1679 23.9754C23.024 24.4378 22.736 24.842 22.346 25.1291C21.956 25.4162 21.4844 25.571 21.0002 25.571C20.5159 25.571 20.0443 25.4162 19.6543 25.1291C19.2644 24.842 18.9764 24.4378 18.8324 23.9754L16.261 26.5469C16.1539 26.654 16.0085 26.7142 15.857 26.7142C15.7055 26.7142 15.5602 26.654 15.453 26.5469C15.3459 26.4397 15.2857 26.2944 15.2857 26.1429C15.2857 25.9913 15.3459 25.846 15.453 25.7389L18.7142 22.4777V19.5223L15.453 16.2611C15.3459 16.154 15.2857 16.0087 15.2857 15.8571C15.2857 15.7056 15.3459 15.5603 15.453 15.4531C15.5602 15.346 15.7055 15.2858 15.857 15.2858C16.0085 15.2858 16.1539 15.346 16.261 15.4531L18.8319 18.0246C18.9758 17.5622 19.2638 17.1579 19.6538 16.8709C20.0438 16.5838 20.5153 16.429 20.9996 16.429C21.4838 16.429 21.9554 16.5838 22.3454 16.8709C22.7354 17.1579 23.0234 17.5622 23.1673 18.0246L25.7387 15.4531C25.7914 15.3986 25.8545 15.355 25.9242 15.3251C25.9939 15.2951 26.0689 15.2794 26.1448 15.2787C26.2207 15.278 26.2959 15.2925 26.3661 15.3212C26.4364 15.35 26.5002 15.3924 26.5538 15.4461C26.6075 15.4997 26.6499 15.5635 26.6786 15.6337C26.7074 15.704 26.7218 15.7792 26.7212 15.8551C26.7205 15.931 26.7047 16.0059 26.6748 16.0757C26.6448 16.1454 26.6013 16.2084 26.5467 16.2611L23.2856 19.5223ZM21.808 24.0938C22.0223 23.8795 22.1427 23.5888 22.1427 23.2857V18.7143C22.1427 18.4112 22.0223 18.1205 21.808 17.9062C21.5937 17.6918 21.303 17.5714 20.9999 17.5714C20.6968 17.5714 20.4061 17.6918 20.1918 17.9062C19.9774 18.1205 19.857 18.4112 19.857 18.7143V23.2857C19.857 23.5888 19.9774 23.8795 20.1918 24.0938C20.4061 24.3082 20.6968 24.4286 20.9999 24.4286C21.303 24.4286 21.5937 24.3082 21.808 24.0938Z" fill="#94B728"/>
<path d="M26.1429 17.5714V17.4214H25.9929V17.5714H26.1429ZM26.1429 18.7143H25.9929V18.8643H26.1429V18.7143ZM27.8242 15.5227L27.9713 15.4934L27.9713 15.4934L27.8242 15.5227ZM27.355 14.645L27.249 14.751L27.249 14.751L27.355 14.645ZM25.4868 14.2734L25.4294 14.1348L25.4294 14.1348L25.4868 14.2734ZM24.7175 14.9047L24.5928 14.8214L24.5928 14.8214L24.7175 14.9047ZM24.4286 15.8571V16.0071H24.5786V15.8571H24.4286ZM23.2857 15.8571H23.1357V16.0071H23.2857V15.8571ZM23.7672 14.2698L23.8919 14.3531L23.8919 14.3531L23.7672 14.2698ZM25.0495 13.2175L25.1069 13.3561L25.1069 13.3561L25.0495 13.2175ZM26.7003 13.0549L26.671 13.202L26.7003 13.0549ZM28.1632 13.8368L28.2692 13.7308L28.2692 13.7308L28.1632 13.8368ZM28.9451 15.2997L29.0922 15.2705L29.0922 15.2705L28.9451 15.2997ZM28.7825 16.9505L28.9211 17.0079L28.9211 17.0079L28.7825 16.9505ZM27.7302 18.2328L27.6469 18.1081L27.6469 18.1081L27.7302 18.2328ZM14.2698 18.2328L14.3531 18.1081L14.3531 18.1081L14.2698 18.2328ZM15.8571 18.7143V18.8643H16.0071V18.7143H15.8571ZM13.2175 16.9505L13.0789 17.0079L13.0789 17.0079L13.2175 16.9505ZM13.0549 15.2997L12.9078 15.2705L12.9078 15.2705L13.0549 15.2997ZM13.8368 13.8368L13.9429 13.9429L13.9429 13.9429L13.8368 13.8368ZM15.2997 13.0549L15.2705 12.9078L15.2705 12.9078L15.2997 13.0549ZM16.9505 13.2175L17.0079 13.0789L17.0079 13.0789L16.9505 13.2175ZM18.2328 14.2698L18.1081 14.3531L18.1081 14.3531L18.2328 14.2698ZM18.7143 15.8571V16.0071H18.8643V15.8571H18.7143ZM17.5714 15.8571H17.4214V16.0071H17.5714V15.8571ZM16.5132 14.2734L16.4558 14.4119L16.4558 14.4119L16.5132 14.2734ZM14.645 14.645L14.5389 14.5389L14.5389 14.5389L14.645 14.645ZM14.2734 16.5132L14.4119 16.4558L14.4119 16.4558L14.2734 16.5132ZM15.8571 17.5714H16.0071V17.4214H15.8571V17.5714ZM15.8571 29L15.8571 29.15L15.8573 29.15L15.8571 29ZM17.8766 28.1623L17.9827 28.2684L17.9827 28.2684L17.8766 28.1623ZM18.7143 26.1429L18.8643 26.143L18.8644 25.9929H18.7143V26.1429ZM17.5714 26.1429V25.9929H17.4214V26.1429H17.5714ZM16.5132 27.7267L16.4558 27.5881L16.4558 27.5881L16.5132 27.7267ZM14.1758 26.4773L14.3229 26.448L14.3229 26.448L14.1758 26.4773ZM14.2733 25.4868L14.4119 25.5442L14.4119 25.5442L14.2733 25.4868ZM14.9047 24.7175L14.8214 24.5928L14.8214 24.5928L14.9047 24.7175ZM15.8571 24.4286V24.5786H16.0071V24.4286H15.8571ZM15.8571 23.2857H16.0071V23.1357H15.8571V23.2857ZM24.1234 28.1623L24.0173 28.2684L24.0173 28.2684L24.1234 28.1623ZM26.1429 29L26.1427 29.15H26.1429V29ZM23.2857 26.1429V25.9929H23.1356L23.1357 26.143L23.2857 26.1429ZM24.4286 26.1429H24.5786V25.9929H24.4286V26.1429ZM24.7175 27.0953L24.5928 27.1786L24.5928 27.1786L24.7175 27.0953ZM25.4868 27.7267L25.5442 27.5881L25.5442 27.5881L25.4868 27.7267ZM26.4773 27.8242L26.448 27.6771L26.448 27.6771L26.4773 27.8242ZM27.8242 26.4773L27.6771 26.448L27.6771 26.448L27.8242 26.4773ZM27.7267 25.4868L27.5881 25.5442L27.5881 25.5442L27.7267 25.4868ZM27.0953 24.7175L27.1786 24.5928L27.1786 24.5928L27.0953 24.7175ZM26.1429 24.4286H25.9929V24.5786H26.1429V24.4286ZM26.1429 23.2857V23.1357H25.9929V23.2857H26.1429ZM23.2856 22.4777H23.1356V22.5398L23.1795 22.5838L23.2856 22.4777ZM23.2856 19.5223L23.1795 19.4162L23.1356 19.4601V19.5223H23.2856ZM26.5473 25.7389L26.6552 25.6346L26.6534 25.6328L26.5473 25.7389ZM26.7077 26.1408L26.8577 26.1421L26.8577 26.1421L26.7077 26.1408ZM26.1412 26.7072L26.1399 26.5572L26.1399 26.5572L26.1412 26.7072ZM25.7393 26.5469L25.6332 26.6529L25.6351 26.6547L25.7393 26.5469ZM23.1679 23.9754L23.2739 23.8694L23.0984 23.6938L23.0247 23.9308L23.1679 23.9754ZM19.6543 25.1291L19.7433 25.0083L19.7433 25.0083L19.6543 25.1291ZM18.8324 23.9754L18.9757 23.9308L18.9019 23.6938L18.7264 23.8694L18.8324 23.9754ZM16.261 26.5469L16.3671 26.6529L16.3671 26.6529L16.261 26.5469ZM15.453 26.5469L15.3469 26.6529L15.347 26.6529L15.453 26.5469ZM15.453 25.7389L15.347 25.6328L15.3469 25.6328L15.453 25.7389ZM18.7142 22.4777L18.8202 22.5838L18.8642 22.5398V22.4777H18.7142ZM18.7142 19.5223H18.8642V19.4601L18.8202 19.4162L18.7142 19.5223ZM15.453 16.2611L15.3469 16.3672L15.347 16.3672L15.453 16.2611ZM15.453 15.4531L15.347 15.3471L15.3469 15.3471L15.453 15.4531ZM16.261 15.4531L16.3671 15.3471L16.3671 15.3471L16.261 15.4531ZM18.8319 18.0246L18.7258 18.1306L18.9013 18.3062L18.9751 18.0691L18.8319 18.0246ZM19.6538 16.8709L19.7427 16.9917L19.7427 16.9917L19.6538 16.8709ZM23.1673 18.0246L23.0241 18.0691L23.0979 18.3062L23.2734 18.1306L23.1673 18.0246ZM25.7387 15.4531L25.8448 15.5592L25.8466 15.5573L25.7387 15.4531ZM25.9242 15.3251L25.9834 15.4629L25.9834 15.4629L25.9242 15.3251ZM26.1448 15.2787L26.1435 15.1287L26.1435 15.1287L26.1448 15.2787ZM26.3661 15.3212L26.4229 15.1824L26.4229 15.1824L26.3661 15.3212ZM26.5538 15.4461L26.4478 15.5521L26.4478 15.5521L26.5538 15.4461ZM26.6786 15.6337L26.5398 15.6905L26.5398 15.6905L26.6786 15.6337ZM26.7212 15.8551L26.8712 15.8564L26.8712 15.8564L26.7212 15.8551ZM26.6748 16.0757L26.537 16.0164L26.537 16.0164L26.6748 16.0757ZM26.5467 16.2611L26.4425 16.1532L26.4407 16.1551L26.5467 16.2611ZM21.808 17.9062L21.9141 17.8001L21.9141 17.8001L21.808 17.9062ZM20.1918 17.9062L20.2978 18.0122L20.2978 18.0122L20.1918 17.9062ZM20.1918 24.0938L20.2978 23.9878L20.2978 23.9878L20.1918 24.0938ZM25.9929 17.5714V18.7143H26.2929V17.5714H25.9929ZM27.0119 17.1578C26.7547 17.3297 26.4522 17.4214 26.1429 17.4214V17.7214C26.5116 17.7214 26.872 17.6121 27.1786 17.4072L27.0119 17.1578ZM27.5881 16.4558C27.4697 16.7416 27.2692 16.9859 27.0119 17.1578L27.1786 17.4072C27.4852 17.2024 27.7241 16.9112 27.8652 16.5706L27.5881 16.4558ZM27.6771 15.552C27.7374 15.8554 27.7065 16.1699 27.5881 16.4558L27.8652 16.5706C28.0063 16.2299 28.0433 15.8551 27.9713 15.4934L27.6771 15.552ZM27.249 14.751C27.4677 14.9698 27.6167 15.2485 27.6771 15.552L27.9713 15.4934C27.8994 15.1318 27.7218 14.7996 27.4611 14.5389L27.249 14.751ZM26.448 14.3229C26.7515 14.3833 27.0302 14.5323 27.249 14.751L27.4611 14.5389C27.2004 14.2782 26.8682 14.1006 26.5066 14.0287L26.448 14.3229ZM25.5442 14.4119C25.8301 14.2935 26.1446 14.2626 26.448 14.3229L26.5066 14.0287C26.1449 13.9567 25.7701 13.9937 25.4294 14.1348L25.5442 14.4119ZM24.8422 14.9881C25.0141 14.7308 25.2584 14.5303 25.5442 14.4119L25.4294 14.1348C25.0888 14.2759 24.7976 14.5148 24.5928 14.8214L24.8422 14.9881ZM24.5786 15.8571C24.5786 15.5478 24.6703 15.2453 24.8422 14.9881L24.5928 14.8214C24.3879 15.128 24.2786 15.4884 24.2786 15.8571H24.5786ZM23.2857 16.0071H24.4286V15.7071H23.2857V16.0071ZM23.6425 14.1865C23.3121 14.681 23.1357 15.2624 23.1357 15.8571H23.4357C23.4357 15.3217 23.5945 14.7983 23.8919 14.3531L23.6425 14.1865ZM24.9921 13.0789C24.4426 13.3065 23.9729 13.6919 23.6425 14.1865L23.8919 14.3531C24.1894 13.9079 24.6122 13.561 25.1069 13.3561L24.9921 13.0789ZM26.7295 12.9078C26.1462 12.7918 25.5416 12.8513 24.9921 13.0789L25.1069 13.3561C25.6015 13.1512 26.1459 13.0976 26.671 13.202L26.7295 12.9078ZM28.2692 13.7308C27.8487 13.3102 27.3129 13.0238 26.7295 12.9078L26.671 13.202C27.1961 13.3065 27.6785 13.5643 28.0571 13.9429L28.2692 13.7308ZM29.0922 15.2705C28.9762 14.6872 28.6898 14.1513 28.2692 13.7308L28.0571 13.9429C28.4357 14.3215 28.6935 14.8039 28.798 15.329L29.0922 15.2705ZM28.9211 17.0079C29.1487 16.4584 29.2082 15.8538 29.0922 15.2705L28.798 15.329C28.9024 15.8541 28.8488 16.3985 28.6439 16.8931L28.9211 17.0079ZM27.8135 18.3575C28.3081 18.0271 28.6935 17.5574 28.9211 17.0079L28.6439 16.8931C28.439 17.3878 28.0921 17.8106 27.6469 18.1081L27.8135 18.3575ZM26.1429 18.8643C26.7376 18.8643 27.319 18.6879 27.8135 18.3575L27.6469 18.1081C27.2017 18.4055 26.6783 18.5643 26.1429 18.5643V18.8643ZM14.1865 18.3575C14.681 18.6879 15.2624 18.8643 15.8571 18.8643V18.5643C15.3217 18.5643 14.7983 18.4055 14.3531 18.1081L14.1865 18.3575ZM13.0789 17.0079C13.3065 17.5574 13.6919 18.0271 14.1865 18.3575L14.3531 18.1081C13.9079 17.8106 13.561 17.3878 13.3561 16.8931L13.0789 17.0079ZM12.9078 15.2705C12.7918 15.8538 12.8513 16.4584 13.0789 17.0079L13.3561 16.8931C13.1512 16.3985 13.0976 15.8541 13.202 15.329L12.9078 15.2705ZM13.7308 13.7308C13.3102 14.1513 13.0238 14.6872 12.9078 15.2705L13.202 15.329C13.3065 14.8039 13.5643 14.3215 13.9429 13.9429L13.7308 13.7308ZM15.2705 12.9078C14.6872 13.0238 14.1513 13.3102 13.7308 13.7308L13.9429 13.9429C14.3215 13.5643 14.8039 13.3065 15.329 13.202L15.2705 12.9078ZM17.0079 13.0789C16.4584 12.8513 15.8538 12.7918 15.2705 12.9078L15.329 13.202C15.8541 13.0976 16.3985 13.1512 16.8931 13.3561L17.0079 13.0789ZM18.3575 14.1865C18.0271 13.6919 17.5574 13.3065 17.0079 13.0789L16.8931 13.3561C17.3878 13.561 17.8106 13.9079 18.1081 14.3531L18.3575 14.1865ZM18.8643 15.8571C18.8643 15.2624 18.6879 14.681 18.3575 14.1865L18.1081 14.3531C18.4055 14.7983 18.5643 15.3217 18.5643 15.8571H18.8643ZM17.5714 16.0071H18.7143V15.7071H17.5714V16.0071ZM17.1578 14.9881C17.3297 15.2453 17.4214 15.5478 17.4214 15.8571H17.7214C17.7214 15.4884 17.6121 15.128 17.4072 14.8214L17.1578 14.9881ZM16.4558 14.4119C16.7416 14.5303 16.9859 14.7308 17.1578 14.9881L17.4072 14.8214C17.2024 14.5148 16.9112 14.2759 16.5706 14.1348L16.4558 14.4119ZM15.552 14.3229C15.8554 14.2626 16.1699 14.2935 16.4558 14.4119L16.5706 14.1348C16.2299 13.9937 15.8551 13.9567 15.4934 14.0287L15.552 14.3229ZM14.751 14.751C14.9698 14.5323 15.2485 14.3833 15.552 14.3229L15.4934 14.0287C15.1318 14.1006 14.7996 14.2782 14.5389 14.5389L14.751 14.751ZM14.3229 15.552C14.3833 15.2485 14.5323 14.9698 14.751 14.751L14.5389 14.5389C14.2782 14.7996 14.1006 15.1318 14.0287 15.4934L14.3229 15.552ZM14.4119 16.4558C14.2935 16.1699 14.2626 15.8554 14.3229 15.552L14.0287 15.4934C13.9567 15.8551 13.9937 16.2299 14.1348 16.5706L14.4119 16.4558ZM14.9881 17.1578C14.7308 16.9859 14.5303 16.7416 14.4119 16.4558L14.1348 16.5706C14.2759 16.9112 14.5148 17.2024 14.8214 17.4072L14.9881 17.1578ZM15.8571 17.4214C15.5478 17.4214 15.2453 17.3297 14.9881 17.1578L14.8214 17.4072C15.128 17.6121 15.4884 17.7214 15.8571 17.7214V17.4214ZM16.0071 18.7143V17.5714H15.7071V18.7143H16.0071ZM15.8571 28.85C15.1392 28.85 14.4506 28.5648 13.9429 28.0571L13.7308 28.2692C14.2947 28.8332 15.0596 29.15 15.8571 29.15V28.85ZM17.7705 28.0563C17.263 28.5638 16.5748 28.8493 15.857 28.85L15.8573 29.15C16.6546 29.1492 17.4189 28.8321 17.9827 28.2684L17.7705 28.0563ZM18.5643 26.1427C18.5636 26.8605 18.2781 27.5487 17.7705 28.0563L17.9827 28.2684C18.5464 27.7046 18.8635 26.9403 18.8643 26.143L18.5643 26.1427ZM17.5714 26.2929H18.7143V25.9929H17.5714V26.2929ZM17.4072 27.1786C17.6121 26.872 17.7214 26.5116 17.7214 26.1429H17.4214C17.4214 26.4522 17.3297 26.7547 17.1578 27.0119L17.4072 27.1786ZM16.5706 27.8652C16.9112 27.7241 17.2024 27.4852 17.4072 27.1786L17.1578 27.0119C16.9859 27.2692 16.7416 27.4697 16.4558 27.5881L16.5706 27.8652ZM15.4934 27.9713C15.8551 28.0433 16.2299 28.0063 16.5706 27.8652L16.4558 27.5881C16.1699 27.7065 15.8554 27.7374 15.552 27.6771L15.4934 27.9713ZM14.5389 27.4611C14.7996 27.7218 15.1318 27.8994 15.4934 27.9713L15.552 27.6771C15.2485 27.6167 14.9698 27.4677 14.751 27.249L14.5389 27.4611ZM14.0287 26.5066C14.1006 26.8682 14.2782 27.2004 14.5389 27.4611L14.751 27.249C14.5323 27.0302 14.3833 26.7515 14.3229 26.448L14.0287 26.5066ZM14.1348 25.4294C13.9937 25.7701 13.9567 26.1449 14.0287 26.5066L14.3229 26.448C14.2626 26.1446 14.2935 25.8301 14.4119 25.5442L14.1348 25.4294ZM14.8214 24.5928C14.5148 24.7976 14.2759 25.0888 14.1348 25.4294L14.4119 25.5442C14.5303 25.2584 14.7308 25.0141 14.9881 24.8422L14.8214 24.5928ZM15.8571 24.2786C15.4884 24.2786 15.128 24.3879 14.8214 24.5928L14.9881 24.8422C15.2453 24.6703 15.5478 24.5786 15.8571 24.5786V24.2786ZM15.7071 23.2857V24.4286H16.0071V23.2857H15.7071ZM13.9429 24.2286C14.4506 23.7209 15.1392 23.4357 15.8571 23.4357V23.1357C15.0596 23.1357 14.2947 23.4525 13.7308 24.0165L13.9429 24.2286ZM13.15 26.1429C13.15 25.4249 13.4352 24.7363 13.9429 24.2286L13.7308 24.0165C13.1668 24.5804 12.85 25.3453 12.85 26.1429H13.15ZM13.9429 28.0571C13.4352 27.5494 13.15 26.8608 13.15 26.1429H12.85C12.85 26.9404 13.1668 27.7053 13.7308 28.2692L13.9429 28.0571ZM24.0173 28.2684C24.5811 28.8321 25.3454 29.1492 26.1427 29.15L26.143 28.85C25.4252 28.8493 24.737 28.5638 24.2295 28.0563L24.0173 28.2684ZM23.1357 26.143C23.1365 26.9403 23.4536 27.7046 24.0173 28.2684L24.2295 28.0563C23.7219 27.5487 23.4364 26.8605 23.4357 26.1427L23.1357 26.143ZM24.4286 25.9929H23.2857V26.2929H24.4286V25.9929ZM24.8422 27.0119C24.6703 26.7547 24.5786 26.4522 24.5786 26.1429H24.2786C24.2786 26.5116 24.3879 26.872 24.5928 27.1786L24.8422 27.0119ZM25.5442 27.5881C25.2584 27.4697 25.0141 27.2692 24.8422 27.0119L24.5928 27.1786C24.7976 27.4852 25.0888 27.7241 25.4294 27.8652L25.5442 27.5881ZM26.448 27.6771C26.1446 27.7374 25.8301 27.7065 25.5442 27.5881L25.4294 27.8652C25.7701 28.0063 26.1449 28.0433 26.5066 27.9713L26.448 27.6771ZM27.249 27.249C27.0302 27.4677 26.7515 27.6167 26.448 27.6771L26.5066 27.9713C26.8682 27.8994 27.2004 27.7218 27.4611 27.4611L27.249 27.249ZM27.6771 26.448C27.6167 26.7515 27.4677 27.0302 27.249 27.249L27.4611 27.4611C27.7218 27.2004 27.8994 26.8682 27.9713 26.5066L27.6771 26.448ZM27.5881 25.5442C27.7065 25.8301 27.7374 26.1446 27.6771 26.448L27.9713 26.5066C28.0433 26.1449 28.0063 25.7701 27.8652 25.4294L27.5881 25.5442ZM27.0119 24.8422C27.2692 25.0141 27.4697 25.2584 27.5881 25.5442L27.8652 25.4294C27.7241 25.0888 27.4852 24.7976 27.1786 24.5928L27.0119 24.8422ZM26.1429 24.5786C26.4522 24.5786 26.7547 24.6703 27.0119 24.8422L27.1786 24.5928C26.872 24.3879 26.5116 24.2786 26.1429 24.2786V24.5786ZM25.9929 23.2857V24.4286H26.2929V23.2857H25.9929ZM28.2692 24.0165C27.7053 23.4525 26.9404 23.1357 26.1429 23.1357V23.4357C26.8608 23.4357 27.5494 23.7209 28.0571 24.2286L28.2692 24.0165ZM29.15 26.1429C29.15 25.3453 28.8332 24.5804 28.2692 24.0165L28.0571 24.2286C28.5648 24.7363 28.85 25.4249 28.85 26.1429H29.15ZM28.2692 28.2692C28.8332 27.7053 29.15 26.9404 29.15 26.1429H28.85C28.85 26.8608 28.5648 27.5494 28.0571 28.0571L28.2692 28.2692ZM26.1429 29.15C26.9404 29.15 27.7053 28.8332 28.2692 28.2692L28.0571 28.0571C27.5494 28.5648 26.8608 28.85 26.1429 28.85V29.15ZM23.4356 22.4777V19.5223H23.1356V22.4777H23.4356ZM26.6534 25.6328L23.3916 22.3716L23.1795 22.5838L26.4412 25.8449L26.6534 25.6328ZM26.8577 26.1421C26.8593 25.9529 26.7866 25.7707 26.6552 25.6346L26.4394 25.8431C26.5162 25.9225 26.5587 26.029 26.5577 26.1395L26.8577 26.1421ZM26.6464 26.646C26.7802 26.5122 26.856 26.3313 26.8577 26.1421L26.5577 26.1395C26.5567 26.25 26.5124 26.3557 26.4343 26.4338L26.6464 26.646ZM26.1426 26.8572C26.3317 26.8556 26.5127 26.7797 26.6464 26.646L26.4343 26.4338C26.3561 26.512 26.2504 26.5563 26.1399 26.5572L26.1426 26.8572ZM25.6351 26.6547C25.7712 26.7862 25.9534 26.8589 26.1426 26.8572L26.1399 26.5572C26.0294 26.5582 25.923 26.5157 25.8435 26.439L25.6351 26.6547ZM23.0618 24.0815L25.6332 26.6529L25.8454 26.4408L23.2739 23.8694L23.0618 24.0815ZM22.4349 25.2499C22.8507 24.9439 23.1577 24.5129 23.3111 24.02L23.0247 23.9308C22.8903 24.3627 22.6213 24.7402 22.2571 25.0083L22.4349 25.2499ZM21.0002 25.721C21.5164 25.721 22.0191 25.5559 22.4349 25.2499L22.2571 25.0083C21.8928 25.2764 21.4524 25.421 21.0002 25.421V25.721ZM19.5654 25.2499C19.9812 25.5559 20.4839 25.721 21.0002 25.721V25.421C20.5479 25.421 20.1075 25.2764 19.7433 25.0083L19.5654 25.2499ZM18.6892 24.02C18.8426 24.5129 19.1497 24.9439 19.5654 25.2499L19.7433 25.0083C19.379 24.7402 19.1101 24.3627 18.9757 23.9308L18.6892 24.02ZM16.3671 26.6529L18.9385 24.0815L18.7264 23.8694L16.155 26.4408L16.3671 26.6529ZM15.857 26.8642C16.0483 26.8642 16.2318 26.7882 16.3671 26.6529L16.155 26.4408C16.0759 26.5198 15.9688 26.5642 15.857 26.5642V26.8642ZM15.347 26.6529C15.4823 26.7882 15.6657 26.8642 15.857 26.8642V26.5642C15.7453 26.5642 15.6381 26.5198 15.5591 26.4408L15.347 26.6529ZM15.1357 26.1429C15.1357 26.3341 15.2117 26.5176 15.3469 26.6529L15.5591 26.4408C15.4801 26.3618 15.4357 26.2546 15.4357 26.1429H15.1357ZM15.3469 25.6328C15.2117 25.7681 15.1357 25.9516 15.1357 26.1429H15.4357C15.4357 26.0311 15.4801 25.9239 15.5591 25.8449L15.3469 25.6328ZM18.6081 22.3716L15.347 25.6328L15.5591 25.8449L18.8202 22.5838L18.6081 22.3716ZM18.5642 19.5223V22.4777H18.8642V19.5223H18.5642ZM15.347 16.3672L18.6081 19.6283L18.8202 19.4162L15.5591 16.1551L15.347 16.3672ZM15.1357 15.8571C15.1357 16.0484 15.2117 16.2319 15.3469 16.3672L15.5591 16.1551C15.4801 16.0761 15.4357 15.9689 15.4357 15.8571H15.1357ZM15.3469 15.3471C15.2117 15.4824 15.1357 15.6658 15.1357 15.8571H15.4357C15.4357 15.7454 15.4801 15.6382 15.5591 15.5592L15.3469 15.3471ZM15.857 15.1358C15.6657 15.1358 15.4823 15.2118 15.347 15.3471L15.5591 15.5592C15.6381 15.4802 15.7453 15.4358 15.857 15.4358V15.1358ZM16.3671 15.3471C16.2318 15.2118 16.0483 15.1358 15.857 15.1358V15.4358C15.9688 15.4358 16.0759 15.4802 16.155 15.5592L16.3671 15.3471ZM18.938 17.9185L16.3671 15.3471L16.1549 15.5592L18.7258 18.1306L18.938 17.9185ZM19.5649 16.7501C19.1491 17.0561 18.8421 17.4871 18.6887 17.98L18.9751 18.0691C19.1095 17.6373 19.3785 17.2598 19.7427 16.9917L19.5649 16.7501ZM20.9996 16.279C20.4833 16.279 19.9806 16.444 19.5649 16.7501L19.7427 16.9917C20.1069 16.7236 20.5473 16.579 20.9996 16.579V16.279ZM22.4343 16.7501C22.0186 16.444 21.5158 16.279 20.9996 16.279V16.579C21.4519 16.579 21.8923 16.7236 22.2565 16.9917L22.4343 16.7501ZM23.3105 17.98C23.1571 17.4871 22.8501 17.0561 22.4343 16.7501L22.2565 16.9917C22.6207 17.2598 22.8897 17.6373 23.0241 18.0691L23.3105 17.98ZM25.6327 15.3471L23.0612 17.9185L23.2734 18.1306L25.8448 15.5592L25.6327 15.3471ZM25.865 15.1873C25.777 15.2251 25.6974 15.28 25.6308 15.3489L25.8466 15.5573C25.8855 15.5171 25.932 15.485 25.9834 15.4629L25.865 15.1873ZM26.1435 15.1287C26.0477 15.1295 25.953 15.1494 25.865 15.1873L25.9834 15.4629C26.0348 15.4408 26.0901 15.4292 26.1461 15.4287L26.1435 15.1287ZM26.4229 15.1824C26.3343 15.1461 26.2393 15.1279 26.1435 15.1287L26.1461 15.4287C26.2021 15.4282 26.2575 15.4389 26.3093 15.4601L26.4229 15.1824ZM26.6599 15.34C26.5921 15.2723 26.5116 15.2187 26.4229 15.1824L26.3093 15.4601C26.3611 15.4813 26.4082 15.5126 26.4478 15.5521L26.6599 15.34ZM26.8175 15.5769C26.7812 15.4883 26.7276 15.4077 26.6599 15.34L26.4478 15.5521C26.4873 15.5917 26.5186 15.6387 26.5398 15.6905L26.8175 15.5769ZM26.8712 15.8564C26.872 15.7606 26.8537 15.6656 26.8175 15.5769L26.5398 15.6905C26.561 15.7423 26.5717 15.7978 26.5712 15.8538L26.8712 15.8564ZM26.8126 16.1349C26.8504 16.0468 26.8703 15.9522 26.8712 15.8564L26.5712 15.8538C26.5707 15.9097 26.5591 15.965 26.537 16.0164L26.8126 16.1349ZM26.6509 16.369C26.7198 16.3025 26.7748 16.2229 26.8126 16.1349L26.537 16.0164C26.5149 16.0679 26.4828 16.1144 26.4425 16.1532L26.6509 16.369ZM23.3917 19.6283L26.6528 16.3672L26.4407 16.1551L23.1795 19.4162L23.3917 19.6283ZM21.9927 23.2857C21.9927 23.549 21.8881 23.8016 21.7019 23.9878L21.9141 24.1999C22.1565 23.9574 22.2927 23.6286 22.2927 23.2857H21.9927ZM21.9927 18.7143V23.2857H22.2927V18.7143H21.9927ZM21.7019 18.0122C21.8881 18.1984 21.9927 18.451 21.9927 18.7143H22.2927C22.2927 18.3714 22.1565 18.0425 21.9141 17.8001L21.7019 18.0122ZM20.9999 17.7214C21.2632 17.7214 21.5157 17.826 21.7019 18.0122L21.9141 17.8001C21.6716 17.5576 21.3428 17.4214 20.9999 17.4214V17.7214ZM20.2978 18.0122C20.484 17.826 20.7366 17.7214 20.9999 17.7214V17.4214C20.657 17.4214 20.3281 17.5576 20.0857 17.8001L20.2978 18.0122ZM20.007 18.7143C20.007 18.451 20.1116 18.1984 20.2978 18.0122L20.0857 17.8001C19.8432 18.0425 19.707 18.3714 19.707 18.7143H20.007ZM20.007 23.2857V18.7143H19.707V23.2857H20.007ZM20.2978 23.9878C20.1116 23.8016 20.007 23.549 20.007 23.2857H19.707C19.707 23.6286 19.8432 23.9574 20.0857 24.1999L20.2978 23.9878ZM20.9999 24.2786C20.7366 24.2786 20.484 24.174 20.2978 23.9878L20.0857 24.1999C20.3281 24.4424 20.657 24.5786 20.9999 24.5786V24.2786ZM21.7019 23.9878C21.5157 24.174 21.2632 24.2786 20.9999 24.2786V24.5786C21.3428 24.5786 21.6716 24.4424 21.9141 24.1999L21.7019 23.9878Z" fill="white" mask="url(#path-2-inside-1)"/>
</svg>
