<svg width="32" height="32" viewBox="0 0 32 32" fill="none" xmlns="http://www.w3.org/2000/svg">
<path d="M0 0H32V32H0V0Z" fill="white"/>
<mask id="path-2-inside-1" fill="white">
<path fill-rule="evenodd" clip-rule="evenodd" d="M21.1429 13.7143V12.5714C21.4819 12.5714 21.8133 12.4709 22.0953 12.2825C22.3772 12.0942 22.5969 11.8264 22.7267 11.5132C22.8564 11.1999 22.8903 10.8552 22.8242 10.5227C22.7581 10.1902 22.5948 9.88471 22.355 9.64496C22.1153 9.40521 21.8098 9.24194 21.4773 9.1758C21.1448 9.10965 20.8001 9.1436 20.4868 9.27335C20.1736 9.4031 19.9058 9.62283 19.7175 9.90474C19.5291 10.1867 19.4286 10.5181 19.4286 10.8571H18.2857C18.2857 10.2921 18.4533 9.73966 18.7672 9.2698C19.0812 8.79995 19.5274 8.43374 20.0495 8.21749C20.5715 8.00124 21.146 7.94466 21.7003 8.0549C22.2545 8.16514 22.7636 8.43726 23.1632 8.83684C23.5627 9.23642 23.8349 9.74551 23.9451 10.2997C24.0553 10.854 23.9988 11.4285 23.7825 11.9505C23.5663 12.4726 23.2001 12.9188 22.7302 13.2328C22.2603 13.5467 21.7079 13.7143 21.1429 13.7143ZM10.8571 13.7143C10.2921 13.7143 9.73966 13.5467 9.2698 13.2328C8.79995 12.9188 8.43374 12.4726 8.21749 11.9505C8.00124 11.4285 7.94466 10.854 8.0549 10.2997C8.16514 9.74551 8.43726 9.23642 8.83684 8.83684C9.23642 8.43726 9.74551 8.16514 10.2997 8.0549C10.854 7.94466 11.4285 8.00124 11.9505 8.21749C12.4726 8.43374 12.9188 8.79995 13.2328 9.2698C13.5467 9.73966 13.7143 10.2921 13.7143 10.8571H12.5714C12.5714 10.5181 12.4709 10.1867 12.2825 9.90474C12.0942 9.62283 11.8264 9.4031 11.5132 9.27335C11.1999 9.1436 10.8552 9.10965 10.5227 9.1758C10.1902 9.24194 9.88471 9.40521 9.64496 9.64496C9.40521 9.88471 9.24194 10.1902 9.1758 10.5227C9.10965 10.8552 9.1436 11.1999 9.27335 11.5132C9.4031 11.8264 9.62283 12.0942 9.90474 12.2825C10.1867 12.4709 10.5181 12.5714 10.8571 12.5714V13.7143ZM8.83684 23.1632C9.37266 23.699 10.0994 24 10.8571 24C11.6147 23.9992 12.341 23.698 12.8766 23.1623C13.4123 22.6267 13.7135 21.9004 13.7143 21.1429H12.5714C12.5714 21.4819 12.4709 21.8133 12.2825 22.0953C12.0942 22.3772 11.8264 22.5969 11.5132 22.7267C11.1999 22.8564 10.8552 22.8903 10.5227 22.8242C10.1902 22.7581 9.88471 22.5948 9.64496 22.355C9.40521 22.1153 9.24194 21.8098 9.1758 21.4773C9.10965 21.1448 9.1436 20.8001 9.27335 20.4868C9.4031 20.1736 9.62282 19.9058 9.90474 19.7175C10.1866 19.5291 10.5181 19.4286 10.8571 19.4286V18.2857C10.0994 18.2857 9.37266 18.5867 8.83684 19.1226C8.30102 19.6584 8 20.3851 8 21.1429C8 21.9006 8.30102 22.6273 8.83684 23.1632ZM21.1429 24C20.3853 23.9992 19.659 23.698 19.1234 23.1623C18.5877 22.6267 18.2865 21.9004 18.2857 21.1429H19.4286C19.4286 21.4819 19.5291 21.8133 19.7175 22.0953C19.9058 22.3772 20.1736 22.5969 20.4868 22.7267C20.8001 22.8564 21.1448 22.8903 21.4773 22.8242C21.8098 22.7581 22.1153 22.5948 22.355 22.355C22.5948 22.1153 22.7581 21.8098 22.8242 21.4773C22.8903 21.1448 22.8564 20.8001 22.7267 20.4868C22.5969 20.1736 22.3772 19.9058 22.0953 19.7175C21.8133 19.5291 21.4819 19.4286 21.1429 19.4286V18.2857C21.9006 18.2857 22.6273 18.5867 23.1632 19.1226C23.699 19.6584 24 20.3851 24 21.1429C24 21.9006 23.699 22.6273 23.1632 23.1632C22.6273 23.699 21.9006 24 21.1429 24ZM18.2856 14.5223V17.4777L21.5473 20.7389C21.6514 20.8466 21.709 20.991 21.7077 21.1408C21.7064 21.2906 21.6463 21.4339 21.5403 21.5399C21.4344 21.6458 21.2911 21.7059 21.1412 21.7072C20.9914 21.7085 20.8471 21.6509 20.7393 21.5469L18.1679 18.9754C18.024 19.4378 17.736 19.842 17.346 20.1291C16.956 20.4162 16.4844 20.571 16.0002 20.571C15.5159 20.571 15.0443 20.4162 14.6543 20.1291C14.2644 19.842 13.9764 19.4378 13.8324 18.9754L11.261 21.5469C11.1539 21.654 11.0085 21.7142 10.857 21.7142C10.7055 21.7142 10.5602 21.654 10.453 21.5469C10.3459 21.4397 10.2857 21.2944 10.2857 21.1429C10.2857 20.9913 10.3459 20.846 10.453 20.7389L13.7142 17.4777V14.5223L10.453 11.2611C10.3459 11.154 10.2857 11.0087 10.2857 10.8571C10.2857 10.7056 10.3459 10.5603 10.453 10.4531C10.5602 10.346 10.7055 10.2858 10.857 10.2858C11.0085 10.2858 11.1539 10.346 11.261 10.4531L13.8319 13.0246C13.9758 12.5622 14.2638 12.1579 14.6538 11.8709C15.0438 11.5838 15.5153 11.429 15.9996 11.429C16.4838 11.429 16.9554 11.5838 17.3454 11.8709C17.7354 12.1579 18.0234 12.5622 18.1673 13.0246L20.7387 10.4531C20.7914 10.3986 20.8545 10.355 20.9242 10.3251C20.9939 10.2951 21.0689 10.2794 21.1448 10.2787C21.2207 10.278 21.2959 10.2925 21.3661 10.3212C21.4364 10.35 21.5002 10.3924 21.5538 10.4461C21.6075 10.4997 21.6499 10.5635 21.6786 10.6337C21.7074 10.704 21.7218 10.7792 21.7212 10.8551C21.7205 10.931 21.7047 11.0059 21.6748 11.0757C21.6448 11.1454 21.6013 11.2084 21.5467 11.2611L18.2856 14.5223ZM16.808 19.0938C17.0223 18.8795 17.1427 18.5888 17.1427 18.2857V13.7143C17.1427 13.4112 17.0223 13.1205 16.808 12.9062C16.5937 12.6918 16.303 12.5714 15.9999 12.5714C15.6968 12.5714 15.4061 12.6918 15.1918 12.9062C14.9774 13.1205 14.857 13.4112 14.857 13.7143V18.2857C14.857 18.5888 14.9774 18.8795 15.1918 19.0938C15.4061 19.3082 15.6968 19.4286 15.9999 19.4286C16.303 19.4286 16.5937 19.3082 16.808 19.0938Z"/>
</mask>
<path fill-rule="evenodd" clip-rule="evenodd" d="M21.1429 13.7143V12.5714C21.4819 12.5714 21.8133 12.4709 22.0953 12.2825C22.3772 12.0942 22.5969 11.8264 22.7267 11.5132C22.8564 11.1999 22.8903 10.8552 22.8242 10.5227C22.7581 10.1902 22.5948 9.88471 22.355 9.64496C22.1153 9.40521 21.8098 9.24194 21.4773 9.1758C21.1448 9.10965 20.8001 9.1436 20.4868 9.27335C20.1736 9.4031 19.9058 9.62283 19.7175 9.90474C19.5291 10.1867 19.4286 10.5181 19.4286 10.8571H18.2857C18.2857 10.2921 18.4533 9.73966 18.7672 9.2698C19.0812 8.79995 19.5274 8.43374 20.0495 8.21749C20.5715 8.00124 21.146 7.94466 21.7003 8.0549C22.2545 8.16514 22.7636 8.43726 23.1632 8.83684C23.5627 9.23642 23.8349 9.74551 23.9451 10.2997C24.0553 10.854 23.9988 11.4285 23.7825 11.9505C23.5663 12.4726 23.2001 12.9188 22.7302 13.2328C22.2603 13.5467 21.7079 13.7143 21.1429 13.7143ZM10.8571 13.7143C10.2921 13.7143 9.73966 13.5467 9.2698 13.2328C8.79995 12.9188 8.43374 12.4726 8.21749 11.9505C8.00124 11.4285 7.94466 10.854 8.0549 10.2997C8.16514 9.74551 8.43726 9.23642 8.83684 8.83684C9.23642 8.43726 9.74551 8.16514 10.2997 8.0549C10.854 7.94466 11.4285 8.00124 11.9505 8.21749C12.4726 8.43374 12.9188 8.79995 13.2328 9.2698C13.5467 9.73966 13.7143 10.2921 13.7143 10.8571H12.5714C12.5714 10.5181 12.4709 10.1867 12.2825 9.90474C12.0942 9.62283 11.8264 9.4031 11.5132 9.27335C11.1999 9.1436 10.8552 9.10965 10.5227 9.1758C10.1902 9.24194 9.88471 9.40521 9.64496 9.64496C9.40521 9.88471 9.24194 10.1902 9.1758 10.5227C9.10965 10.8552 9.1436 11.1999 9.27335 11.5132C9.4031 11.8264 9.62283 12.0942 9.90474 12.2825C10.1867 12.4709 10.5181 12.5714 10.8571 12.5714V13.7143ZM8.83684 23.1632C9.37266 23.699 10.0994 24 10.8571 24C11.6147 23.9992 12.341 23.698 12.8766 23.1623C13.4123 22.6267 13.7135 21.9004 13.7143 21.1429H12.5714C12.5714 21.4819 12.4709 21.8133 12.2825 22.0953C12.0942 22.3772 11.8264 22.5969 11.5132 22.7267C11.1999 22.8564 10.8552 22.8903 10.5227 22.8242C10.1902 22.7581 9.88471 22.5948 9.64496 22.355C9.40521 22.1153 9.24194 21.8098 9.1758 21.4773C9.10965 21.1448 9.1436 20.8001 9.27335 20.4868C9.4031 20.1736 9.62282 19.9058 9.90474 19.7175C10.1866 19.5291 10.5181 19.4286 10.8571 19.4286V18.2857C10.0994 18.2857 9.37266 18.5867 8.83684 19.1226C8.30102 19.6584 8 20.3851 8 21.1429C8 21.9006 8.30102 22.6273 8.83684 23.1632ZM21.1429 24C20.3853 23.9992 19.659 23.698 19.1234 23.1623C18.5877 22.6267 18.2865 21.9004 18.2857 21.1429H19.4286C19.4286 21.4819 19.5291 21.8133 19.7175 22.0953C19.9058 22.3772 20.1736 22.5969 20.4868 22.7267C20.8001 22.8564 21.1448 22.8903 21.4773 22.8242C21.8098 22.7581 22.1153 22.5948 22.355 22.355C22.5948 22.1153 22.7581 21.8098 22.8242 21.4773C22.8903 21.1448 22.8564 20.8001 22.7267 20.4868C22.5969 20.1736 22.3772 19.9058 22.0953 19.7175C21.8133 19.5291 21.4819 19.4286 21.1429 19.4286V18.2857C21.9006 18.2857 22.6273 18.5867 23.1632 19.1226C23.699 19.6584 24 20.3851 24 21.1429C24 21.9006 23.699 22.6273 23.1632 23.1632C22.6273 23.699 21.9006 24 21.1429 24ZM18.2856 14.5223V17.4777L21.5473 20.7389C21.6514 20.8466 21.709 20.991 21.7077 21.1408C21.7064 21.2906 21.6463 21.4339 21.5403 21.5399C21.4344 21.6458 21.2911 21.7059 21.1412 21.7072C20.9914 21.7085 20.8471 21.6509 20.7393 21.5469L18.1679 18.9754C18.024 19.4378 17.736 19.842 17.346 20.1291C16.956 20.4162 16.4844 20.571 16.0002 20.571C15.5159 20.571 15.0443 20.4162 14.6543 20.1291C14.2644 19.842 13.9764 19.4378 13.8324 18.9754L11.261 21.5469C11.1539 21.654 11.0085 21.7142 10.857 21.7142C10.7055 21.7142 10.5602 21.654 10.453 21.5469C10.3459 21.4397 10.2857 21.2944 10.2857 21.1429C10.2857 20.9913 10.3459 20.846 10.453 20.7389L13.7142 17.4777V14.5223L10.453 11.2611C10.3459 11.154 10.2857 11.0087 10.2857 10.8571C10.2857 10.7056 10.3459 10.5603 10.453 10.4531C10.5602 10.346 10.7055 10.2858 10.857 10.2858C11.0085 10.2858 11.1539 10.346 11.261 10.4531L13.8319 13.0246C13.9758 12.5622 14.2638 12.1579 14.6538 11.8709C15.0438 11.5838 15.5153 11.429 15.9996 11.429C16.4838 11.429 16.9554 11.5838 17.3454 11.8709C17.7354 12.1579 18.0234 12.5622 18.1673 13.0246L20.7387 10.4531C20.7914 10.3986 20.8545 10.355 20.9242 10.3251C20.9939 10.2951 21.0689 10.2794 21.1448 10.2787C21.2207 10.278 21.2959 10.2925 21.3661 10.3212C21.4364 10.35 21.5002 10.3924 21.5538 10.4461C21.6075 10.4997 21.6499 10.5635 21.6786 10.6337C21.7074 10.704 21.7218 10.7792 21.7212 10.8551C21.7205 10.931 21.7047 11.0059 21.6748 11.0757C21.6448 11.1454 21.6013 11.2084 21.5467 11.2611L18.2856 14.5223ZM16.808 19.0938C17.0223 18.8795 17.1427 18.5888 17.1427 18.2857V13.7143C17.1427 13.4112 17.0223 13.1205 16.808 12.9062C16.5937 12.6918 16.303 12.5714 15.9999 12.5714C15.6968 12.5714 15.4061 12.6918 15.1918 12.9062C14.9774 13.1205 14.857 13.4112 14.857 13.7143V18.2857C14.857 18.5888 14.9774 18.8795 15.1918 19.0938C15.4061 19.3082 15.6968 19.4286 15.9999 19.4286C16.303 19.4286 16.5937 19.3082 16.808 19.0938Z" fill="#132144"/>
<path d="M21.1429 12.5714V12.4214H20.9929V12.5714H21.1429ZM21.1429 13.7143H20.9929V13.8643H21.1429V13.7143ZM22.8242 10.5227L22.9713 10.4934L22.9713 10.4934L22.8242 10.5227ZM22.355 9.64496L22.249 9.75103L22.249 9.75103L22.355 9.64496ZM20.4868 9.27335L20.4294 9.13477L20.4294 9.13477L20.4868 9.27335ZM19.7175 9.90474L19.5928 9.8214L19.5928 9.8214L19.7175 9.90474ZM19.4286 10.8571V11.0071H19.5786V10.8571H19.4286ZM18.2857 10.8571H18.1357V11.0071H18.2857V10.8571ZM18.7672 9.2698L18.8919 9.35314L18.8919 9.35314L18.7672 9.2698ZM20.0495 8.21749L20.1069 8.35607L20.1069 8.35607L20.0495 8.21749ZM21.7003 8.0549L21.671 8.20202L21.7003 8.0549ZM23.1632 8.83684L23.2692 8.73077L23.2692 8.73077L23.1632 8.83684ZM23.9451 10.2997L24.0922 10.2705L24.0922 10.2705L23.9451 10.2997ZM23.7825 11.9505L23.9211 12.0079L23.9211 12.0079L23.7825 11.9505ZM22.7302 13.2328L22.6469 13.1081L22.6469 13.1081L22.7302 13.2328ZM9.2698 13.2328L9.35314 13.1081L9.35314 13.1081L9.2698 13.2328ZM10.8571 13.7143V13.8643H11.0071V13.7143H10.8571ZM8.21749 11.9505L8.07891 12.0079L8.07891 12.0079L8.21749 11.9505ZM8.0549 10.2997L7.90778 10.2705L7.90778 10.2705L8.0549 10.2997ZM8.83684 8.83684L8.94291 8.94291L8.94291 8.94291L8.83684 8.83684ZM10.2997 8.0549L10.2705 7.90778L10.2705 7.90778L10.2997 8.0549ZM11.9505 8.21749L12.0079 8.07891L12.0079 8.07891L11.9505 8.21749ZM13.2328 9.2698L13.1081 9.35314L13.1081 9.35314L13.2328 9.2698ZM13.7143 10.8571V11.0071H13.8643V10.8571H13.7143ZM12.5714 10.8571H12.4214V11.0071H12.5714V10.8571ZM11.5132 9.27335L11.4558 9.41193L11.4558 9.41193L11.5132 9.27335ZM9.64496 9.64496L9.5389 9.5389L9.5389 9.5389L9.64496 9.64496ZM9.27335 11.5132L9.41193 11.4558L9.41193 11.4558L9.27335 11.5132ZM10.8571 12.5714H11.0071V12.4214H10.8571V12.5714ZM10.8571 24L10.8571 24.15L10.8573 24.15L10.8571 24ZM12.8766 23.1623L12.9827 23.2684L12.9827 23.2684L12.8766 23.1623ZM13.7143 21.1429L13.8643 21.143L13.8644 20.9929H13.7143V21.1429ZM12.5714 21.1429V20.9929H12.4214V21.1429H12.5714ZM11.5132 22.7267L11.4558 22.5881L11.4558 22.5881L11.5132 22.7267ZM9.1758 21.4773L9.32291 21.448L9.32291 21.448L9.1758 21.4773ZM9.27335 20.4868L9.41193 20.5442L9.41193 20.5442L9.27335 20.4868ZM9.90474 19.7175L9.8214 19.5928L9.8214 19.5928L9.90474 19.7175ZM10.8571 19.4286V19.5786H11.0071V19.4286H10.8571ZM10.8571 18.2857H11.0071V18.1357H10.8571V18.2857ZM19.1234 23.1623L19.0173 23.2684L19.0173 23.2684L19.1234 23.1623ZM21.1429 24L21.1427 24.15H21.1429V24ZM18.2857 21.1429V20.9929H18.1356L18.1357 21.143L18.2857 21.1429ZM19.4286 21.1429H19.5786V20.9929H19.4286V21.1429ZM19.7175 22.0953L19.5928 22.1786L19.5928 22.1786L19.7175 22.0953ZM20.4868 22.7267L20.5442 22.5881L20.5442 22.5881L20.4868 22.7267ZM21.4773 22.8242L21.448 22.6771L21.448 22.6771L21.4773 22.8242ZM22.8242 21.4773L22.6771 21.448L22.6771 21.448L22.8242 21.4773ZM22.7267 20.4868L22.5881 20.5442L22.5881 20.5442L22.7267 20.4868ZM22.0953 19.7175L22.1786 19.5928L22.1786 19.5928L22.0953 19.7175ZM21.1429 19.4286H20.9929V19.5786H21.1429V19.4286ZM21.1429 18.2857V18.1357H20.9929V18.2857H21.1429ZM18.2856 17.4777H18.1356V17.5398L18.1795 17.5838L18.2856 17.4777ZM18.2856 14.5223L18.1795 14.4162L18.1356 14.4601V14.5223H18.2856ZM21.5473 20.7389L21.6552 20.6346L21.6534 20.6328L21.5473 20.7389ZM21.7077 21.1408L21.8577 21.1421L21.8577 21.1421L21.7077 21.1408ZM21.1412 21.7072L21.1399 21.5572L21.1399 21.5572L21.1412 21.7072ZM20.7393 21.5469L20.6332 21.6529L20.6351 21.6547L20.7393 21.5469ZM18.1679 18.9754L18.2739 18.8694L18.0984 18.6938L18.0247 18.9308L18.1679 18.9754ZM14.6543 20.1291L14.7433 20.0083L14.7433 20.0083L14.6543 20.1291ZM13.8324 18.9754L13.9757 18.9308L13.9019 18.6938L13.7264 18.8694L13.8324 18.9754ZM11.261 21.5469L11.3671 21.6529L11.3671 21.6529L11.261 21.5469ZM10.453 21.5469L10.3469 21.6529L10.347 21.6529L10.453 21.5469ZM10.453 20.7389L10.347 20.6328L10.3469 20.6328L10.453 20.7389ZM13.7142 17.4777L13.8202 17.5838L13.8642 17.5398V17.4777H13.7142ZM13.7142 14.5223H13.8642V14.4601L13.8202 14.4162L13.7142 14.5223ZM10.453 11.2611L10.3469 11.3672L10.347 11.3672L10.453 11.2611ZM10.453 10.4531L10.347 10.3471L10.3469 10.3471L10.453 10.4531ZM11.261 10.4531L11.3671 10.3471L11.3671 10.3471L11.261 10.4531ZM13.8319 13.0246L13.7258 13.1306L13.9013 13.3062L13.9751 13.0691L13.8319 13.0246ZM14.6538 11.8709L14.7427 11.9917L14.7427 11.9917L14.6538 11.8709ZM18.1673 13.0246L18.0241 13.0691L18.0979 13.3062L18.2734 13.1306L18.1673 13.0246ZM20.7387 10.4531L20.8448 10.5592L20.8466 10.5573L20.7387 10.4531ZM20.9242 10.3251L20.9834 10.4629L20.9834 10.4629L20.9242 10.3251ZM21.1448 10.2787L21.1435 10.1287L21.1435 10.1287L21.1448 10.2787ZM21.3661 10.3212L21.4229 10.1824L21.4229 10.1824L21.3661 10.3212ZM21.5538 10.4461L21.4478 10.5521L21.4478 10.5521L21.5538 10.4461ZM21.6786 10.6337L21.5398 10.6905L21.5398 10.6905L21.6786 10.6337ZM21.7212 10.8551L21.8712 10.8564L21.8712 10.8564L21.7212 10.8551ZM21.6748 11.0757L21.537 11.0164L21.537 11.0164L21.6748 11.0757ZM21.5467 11.2611L21.4425 11.1532L21.4407 11.1551L21.5467 11.2611ZM16.808 12.9062L16.9141 12.8001L16.9141 12.8001L16.808 12.9062ZM15.1918 12.9062L15.2978 13.0122L15.2978 13.0122L15.1918 12.9062ZM15.1918 19.0938L15.2978 18.9878L15.2978 18.9878L15.1918 19.0938ZM20.9929 12.5714V13.7143H21.2929V12.5714H20.9929ZM22.0119 12.1578C21.7547 12.3297 21.4522 12.4214 21.1429 12.4214V12.7214C21.5116 12.7214 21.872 12.6121 22.1786 12.4072L22.0119 12.1578ZM22.5881 11.4558C22.4697 11.7416 22.2692 11.9859 22.0119 12.1578L22.1786 12.4072C22.4852 12.2024 22.7241 11.9112 22.8652 11.5706L22.5881 11.4558ZM22.6771 10.552C22.7374 10.8554 22.7065 11.1699 22.5881 11.4558L22.8652 11.5706C23.0063 11.2299 23.0433 10.8551 22.9713 10.4934L22.6771 10.552ZM22.249 9.75103C22.4677 9.9698 22.6167 10.2485 22.6771 10.552L22.9713 10.4934C22.8994 10.1318 22.7218 9.79962 22.4611 9.53889L22.249 9.75103ZM21.448 9.32292C21.7515 9.38327 22.0302 9.53226 22.249 9.75103L22.4611 9.5389C22.2004 9.27817 21.8682 9.10061 21.5066 9.02868L21.448 9.32292ZM20.5442 9.41193C20.8301 9.29354 21.1446 9.26256 21.448 9.32292L21.5066 9.02868C21.1449 8.95675 20.7701 8.99367 20.4294 9.13477L20.5442 9.41193ZM19.8422 9.98807C20.0141 9.73083 20.2584 9.53033 20.5442 9.41193L20.4294 9.13477C20.0888 9.27587 19.7976 9.51482 19.5928 9.8214L19.8422 9.98807ZM19.5786 10.8571C19.5786 10.5478 19.6703 10.2453 19.8422 9.98807L19.5928 9.8214C19.3879 10.128 19.2786 10.4884 19.2786 10.8571H19.5786ZM18.2857 11.0071H19.4286V10.7071H18.2857V11.0071ZM18.6425 9.18647C18.3121 9.68099 18.1357 10.2624 18.1357 10.8571H18.4357C18.4357 10.3217 18.5945 9.79832 18.8919 9.35314L18.6425 9.18647ZM19.9921 8.07891C19.4426 8.30651 18.9729 8.69194 18.6425 9.18647L18.8919 9.35314C19.1894 8.90795 19.6122 8.56097 20.1069 8.35607L19.9921 8.07891ZM21.7295 7.90778C21.1462 7.79175 20.5416 7.8513 19.9921 8.07891L20.1069 8.35607C20.6015 8.15117 21.1459 8.09756 21.671 8.20202L21.7295 7.90778ZM23.2692 8.73077C22.8487 8.31022 22.3129 8.02381 21.7295 7.90778L21.671 8.20202C22.1961 8.30647 22.6785 8.5643 23.0571 8.94291L23.2692 8.73077ZM24.0922 10.2705C23.9762 9.68715 23.6898 9.15133 23.2692 8.73077L23.0571 8.94291C23.4357 9.32151 23.6935 9.80387 23.798 10.329L24.0922 10.2705ZM23.9211 12.0079C24.1487 11.4584 24.2082 10.8538 24.0922 10.2705L23.798 10.329C23.9024 10.8541 23.8488 11.3985 23.6439 11.8931L23.9211 12.0079ZM22.8135 13.3575C23.3081 13.0271 23.6935 12.5574 23.9211 12.0079L23.6439 11.8931C23.439 12.3878 23.0921 12.8106 22.6469 13.1081L22.8135 13.3575ZM21.1429 13.8643C21.7376 13.8643 22.319 13.6879 22.8135 13.3575L22.6469 13.1081C22.2017 13.4055 21.6783 13.5643 21.1429 13.5643V13.8643ZM9.18647 13.3575C9.68099 13.6879 10.2624 13.8643 10.8571 13.8643V13.5643C10.3217 13.5643 9.79832 13.4055 9.35314 13.1081L9.18647 13.3575ZM8.07891 12.0079C8.30651 12.5574 8.69194 13.0271 9.18647 13.3575L9.35314 13.1081C8.90795 12.8106 8.56097 12.3878 8.35607 11.8931L8.07891 12.0079ZM7.90778 10.2705C7.79175 10.8538 7.8513 11.4584 8.07891 12.0079L8.35607 11.8931C8.15117 11.3985 8.09756 10.8541 8.20202 10.329L7.90778 10.2705ZM8.73077 8.73077C8.31022 9.15133 8.02381 9.68715 7.90778 10.2705L8.20202 10.329C8.30647 9.80387 8.5643 9.32151 8.94291 8.94291L8.73077 8.73077ZM10.2705 7.90778C9.68715 8.02381 9.15133 8.31022 8.73077 8.73077L8.94291 8.94291C9.32151 8.5643 9.80387 8.30647 10.329 8.20202L10.2705 7.90778ZM12.0079 8.07891C11.4584 7.8513 10.8538 7.79175 10.2705 7.90778L10.329 8.20202C10.8541 8.09756 11.3985 8.15117 11.8931 8.35607L12.0079 8.07891ZM13.3575 9.18647C13.0271 8.69194 12.5574 8.30651 12.0079 8.07891L11.8931 8.35607C12.3878 8.56097 12.8106 8.90795 13.1081 9.35314L13.3575 9.18647ZM13.8643 10.8571C13.8643 10.2624 13.6879 9.68099 13.3575 9.18647L13.1081 9.35314C13.4055 9.79832 13.5643 10.3217 13.5643 10.8571H13.8643ZM12.5714 11.0071H13.7143V10.7071H12.5714V11.0071ZM12.1578 9.98807C12.3297 10.2453 12.4214 10.5478 12.4214 10.8571H12.7214C12.7214 10.4884 12.6121 10.128 12.4072 9.8214L12.1578 9.98807ZM11.4558 9.41193C11.7416 9.53033 11.9859 9.73083 12.1578 9.98807L12.4072 9.8214C12.2024 9.51482 11.9112 9.27587 11.5706 9.13477L11.4558 9.41193ZM10.552 9.32292C10.8554 9.26256 11.1699 9.29354 11.4558 9.41193L11.5706 9.13477C11.2299 8.99367 10.8551 8.95675 10.4934 9.02868L10.552 9.32292ZM9.75103 9.75103C9.9698 9.53226 10.2485 9.38327 10.552 9.32292L10.4934 9.02868C10.1318 9.10061 9.79962 9.27817 9.5389 9.5389L9.75103 9.75103ZM9.32292 10.552C9.38327 10.2485 9.53226 9.9698 9.75103 9.75103L9.5389 9.5389C9.27817 9.79962 9.10061 10.1318 9.02868 10.4934L9.32292 10.552ZM9.41193 11.4558C9.29354 11.1699 9.26256 10.8554 9.32292 10.552L9.02868 10.4934C8.95675 10.8551 8.99367 11.2299 9.13477 11.5706L9.41193 11.4558ZM9.98807 12.1578C9.73083 11.9859 9.53033 11.7416 9.41193 11.4558L9.13477 11.5706C9.27587 11.9112 9.51482 12.2024 9.8214 12.4072L9.98807 12.1578ZM10.8571 12.4214C10.5478 12.4214 10.2453 12.3297 9.98807 12.1578L9.8214 12.4072C10.128 12.6121 10.4884 12.7214 10.8571 12.7214V12.4214ZM11.0071 13.7143V12.5714H10.7071V13.7143H11.0071ZM10.8571 23.85C10.1392 23.85 9.45059 23.5648 8.9429 23.0571L8.73077 23.2692C9.29472 23.8332 10.0596 24.15 10.8571 24.15V23.85ZM12.7705 23.0563C12.263 23.5638 11.5748 23.8493 10.857 23.85L10.8573 24.15C11.6546 24.1492 12.4189 23.8321 12.9827 23.2684L12.7705 23.0563ZM13.5643 21.1427C13.5636 21.8605 13.2781 22.5487 12.7705 23.0563L12.9827 23.2684C13.5464 22.7046 13.8635 21.9403 13.8643 21.143L13.5643 21.1427ZM12.5714 21.2929H13.7143V20.9929H12.5714V21.2929ZM12.4072 22.1786C12.6121 21.872 12.7214 21.5116 12.7214 21.1429H12.4214C12.4214 21.4522 12.3297 21.7547 12.1578 22.0119L12.4072 22.1786ZM11.5706 22.8652C11.9112 22.7241 12.2024 22.4852 12.4072 22.1786L12.1578 22.0119C11.9859 22.2692 11.7416 22.4697 11.4558 22.5881L11.5706 22.8652ZM10.4934 22.9713C10.8551 23.0433 11.2299 23.0063 11.5706 22.8652L11.4558 22.5881C11.1699 22.7065 10.8554 22.7374 10.552 22.6771L10.4934 22.9713ZM9.53889 22.4611C9.79962 22.7218 10.1318 22.8994 10.4934 22.9713L10.552 22.6771C10.2485 22.6167 9.9698 22.4677 9.75103 22.249L9.53889 22.4611ZM9.02868 21.5066C9.10061 21.8682 9.27817 22.2004 9.53889 22.4611L9.75103 22.249C9.53226 22.0302 9.38327 21.7515 9.32291 21.448L9.02868 21.5066ZM9.13477 20.4294C8.99366 20.7701 8.95675 21.1449 9.02868 21.5066L9.32291 21.448C9.26256 21.1446 9.29353 20.8301 9.41193 20.5442L9.13477 20.4294ZM9.8214 19.5928C9.51482 19.7976 9.27587 20.0888 9.13477 20.4294L9.41193 20.5442C9.53033 20.2584 9.73083 20.0141 9.98807 19.8422L9.8214 19.5928ZM10.8571 19.2786C10.4884 19.2786 10.128 19.3879 9.8214 19.5928L9.98807 19.8422C10.2453 19.6703 10.5478 19.5786 10.8571 19.5786V19.2786ZM10.7071 18.2857V19.4286H11.0071V18.2857H10.7071ZM8.9429 19.2286C9.45059 18.7209 10.1392 18.4357 10.8571 18.4357V18.1357C10.0596 18.1357 9.29472 18.4525 8.73077 19.0165L8.9429 19.2286ZM8.15 21.1429C8.15 20.4249 8.43522 19.7363 8.9429 19.2286L8.73077 19.0165C8.16682 19.5804 7.85 20.3453 7.85 21.1429H8.15ZM8.9429 23.0571C8.43522 22.5494 8.15 21.8608 8.15 21.1429H7.85C7.85 21.9404 8.16682 22.7053 8.73077 23.2692L8.9429 23.0571ZM19.0173 23.2684C19.5811 23.8321 20.3454 24.1492 21.1427 24.15L21.143 23.85C20.4252 23.8493 19.737 23.5638 19.2295 23.0563L19.0173 23.2684ZM18.1357 21.143C18.1365 21.9403 18.4536 22.7046 19.0173 23.2684L19.2295 23.0563C18.7219 22.5487 18.4364 21.8605 18.4357 21.1427L18.1357 21.143ZM19.4286 20.9929H18.2857V21.2929H19.4286V20.9929ZM19.8422 22.0119C19.6703 21.7547 19.5786 21.4522 19.5786 21.1429H19.2786C19.2786 21.5116 19.3879 21.872 19.5928 22.1786L19.8422 22.0119ZM20.5442 22.5881C20.2584 22.4697 20.0141 22.2692 19.8422 22.0119L19.5928 22.1786C19.7976 22.4852 20.0888 22.7241 20.4294 22.8652L20.5442 22.5881ZM21.448 22.6771C21.1446 22.7374 20.8301 22.7065 20.5442 22.5881L20.4294 22.8652C20.7701 23.0063 21.1449 23.0433 21.5066 22.9713L21.448 22.6771ZM22.249 22.249C22.0302 22.4677 21.7515 22.6167 21.448 22.6771L21.5066 22.9713C21.8682 22.8994 22.2004 22.7218 22.4611 22.4611L22.249 22.249ZM22.6771 21.448C22.6167 21.7515 22.4677 22.0302 22.249 22.249L22.4611 22.4611C22.7218 22.2004 22.8994 21.8682 22.9713 21.5066L22.6771 21.448ZM22.5881 20.5442C22.7065 20.8301 22.7374 21.1446 22.6771 21.448L22.9713 21.5066C23.0433 21.1449 23.0063 20.7701 22.8652 20.4294L22.5881 20.5442ZM22.0119 19.8422C22.2692 20.0141 22.4697 20.2584 22.5881 20.5442L22.8652 20.4294C22.7241 20.0888 22.4852 19.7976 22.1786 19.5928L22.0119 19.8422ZM21.1429 19.5786C21.4522 19.5786 21.7547 19.6703 22.0119 19.8422L22.1786 19.5928C21.872 19.3879 21.5116 19.2786 21.1429 19.2786V19.5786ZM20.9929 18.2857V19.4286H21.2929V18.2857H20.9929ZM23.2692 19.0165C22.7053 18.4525 21.9404 18.1357 21.1429 18.1357V18.4357C21.8608 18.4357 22.5494 18.7209 23.0571 19.2286L23.2692 19.0165ZM24.15 21.1429C24.15 20.3453 23.8332 19.5804 23.2692 19.0165L23.0571 19.2286C23.5648 19.7363 23.85 20.4249 23.85 21.1429H24.15ZM23.2692 23.2692C23.8332 22.7053 24.15 21.9404 24.15 21.1429H23.85C23.85 21.8608 23.5648 22.5494 23.0571 23.0571L23.2692 23.2692ZM21.1429 24.15C21.9404 24.15 22.7053 23.8332 23.2692 23.2692L23.0571 23.0571C22.5494 23.5648 21.8608 23.85 21.1429 23.85V24.15ZM18.4356 17.4777V14.5223H18.1356V17.4777H18.4356ZM21.6534 20.6328L18.3916 17.3716L18.1795 17.5838L21.4412 20.8449L21.6534 20.6328ZM21.8577 21.1421C21.8593 20.9529 21.7866 20.7707 21.6552 20.6346L21.4394 20.8431C21.5162 20.9225 21.5587 21.029 21.5577 21.1395L21.8577 21.1421ZM21.6464 21.646C21.7802 21.5122 21.856 21.3313 21.8577 21.1421L21.5577 21.1395C21.5567 21.25 21.5124 21.3557 21.4343 21.4338L21.6464 21.646ZM21.1426 21.8572C21.3317 21.8556 21.5127 21.7797 21.6464 21.646L21.4343 21.4338C21.3561 21.512 21.2504 21.5563 21.1399 21.5572L21.1426 21.8572ZM20.6351 21.6547C20.7712 21.7862 20.9534 21.8589 21.1426 21.8572L21.1399 21.5572C21.0294 21.5582 20.923 21.5157 20.8435 21.439L20.6351 21.6547ZM18.0618 19.0815L20.6332 21.6529L20.8454 21.4408L18.2739 18.8694L18.0618 19.0815ZM17.4349 20.2499C17.8507 19.9439 18.1577 19.5129 18.3111 19.02L18.0247 18.9308C17.8903 19.3627 17.6213 19.7402 17.2571 20.0083L17.4349 20.2499ZM16.0002 20.721C16.5164 20.721 17.0191 20.5559 17.4349 20.2499L17.2571 20.0083C16.8928 20.2764 16.4524 20.421 16.0002 20.421V20.721ZM14.5654 20.2499C14.9812 20.5559 15.4839 20.721 16.0002 20.721V20.421C15.5479 20.421 15.1075 20.2764 14.7433 20.0083L14.5654 20.2499ZM13.6892 19.02C13.8426 19.5129 14.1497 19.9439 14.5654 20.2499L14.7433 20.0083C14.379 19.7402 14.1101 19.3627 13.9757 18.9308L13.6892 19.02ZM11.3671 21.6529L13.9385 19.0815L13.7264 18.8694L11.155 21.4408L11.3671 21.6529ZM10.857 21.8642C11.0483 21.8642 11.2318 21.7882 11.3671 21.6529L11.155 21.4408C11.0759 21.5198 10.9688 21.5642 10.857 21.5642V21.8642ZM10.347 21.6529C10.4823 21.7882 10.6657 21.8642 10.857 21.8642V21.5642C10.7453 21.5642 10.6381 21.5198 10.5591 21.4408L10.347 21.6529ZM10.1357 21.1429C10.1357 21.3341 10.2117 21.5176 10.3469 21.6529L10.5591 21.4408C10.4801 21.3618 10.4357 21.2546 10.4357 21.1429H10.1357ZM10.3469 20.6328C10.2117 20.7681 10.1357 20.9516 10.1357 21.1429H10.4357C10.4357 21.0311 10.4801 20.9239 10.5591 20.8449L10.3469 20.6328ZM13.6081 17.3716L10.347 20.6328L10.5591 20.8449L13.8202 17.5838L13.6081 17.3716ZM13.5642 14.5223V17.4777H13.8642V14.5223H13.5642ZM10.347 11.3672L13.6081 14.6283L13.8202 14.4162L10.5591 11.1551L10.347 11.3672ZM10.1357 10.8571C10.1357 11.0484 10.2117 11.2319 10.3469 11.3672L10.5591 11.1551C10.4801 11.0761 10.4357 10.9689 10.4357 10.8571H10.1357ZM10.3469 10.3471C10.2117 10.4824 10.1357 10.6658 10.1357 10.8571H10.4357C10.4357 10.7454 10.4801 10.6382 10.5591 10.5592L10.3469 10.3471ZM10.857 10.1358C10.6657 10.1358 10.4823 10.2118 10.347 10.3471L10.5591 10.5592C10.6381 10.4802 10.7453 10.4358 10.857 10.4358V10.1358ZM11.3671 10.3471C11.2318 10.2118 11.0483 10.1358 10.857 10.1358V10.4358C10.9688 10.4358 11.0759 10.4802 11.155 10.5592L11.3671 10.3471ZM13.938 12.9185L11.3671 10.3471L11.1549 10.5592L13.7258 13.1306L13.938 12.9185ZM14.5649 11.7501C14.1491 12.0561 13.8421 12.4871 13.6887 12.98L13.9751 13.0691C14.1095 12.6373 14.3785 12.2598 14.7427 11.9917L14.5649 11.7501ZM15.9996 11.279C15.4833 11.279 14.9806 11.444 14.5649 11.7501L14.7427 11.9917C15.1069 11.7236 15.5473 11.579 15.9996 11.579V11.279ZM17.4343 11.7501C17.0186 11.444 16.5158 11.279 15.9996 11.279V11.579C16.4519 11.579 16.8923 11.7236 17.2565 11.9917L17.4343 11.7501ZM18.3105 12.98C18.1571 12.4871 17.8501 12.0561 17.4343 11.7501L17.2565 11.9917C17.6207 12.2598 17.8897 12.6373 18.0241 13.0691L18.3105 12.98ZM20.6327 10.3471L18.0612 12.9185L18.2734 13.1306L20.8448 10.5592L20.6327 10.3471ZM20.865 10.1873C20.777 10.2251 20.6974 10.28 20.6308 10.3489L20.8466 10.5573C20.8855 10.5171 20.932 10.485 20.9834 10.4629L20.865 10.1873ZM21.1435 10.1287C21.0477 10.1295 20.953 10.1494 20.865 10.1873L20.9834 10.4629C21.0348 10.4408 21.0901 10.4292 21.1461 10.4287L21.1435 10.1287ZM21.4229 10.1824C21.3343 10.1461 21.2393 10.1279 21.1435 10.1287L21.1461 10.4287C21.2021 10.4282 21.2575 10.4389 21.3093 10.4601L21.4229 10.1824ZM21.6599 10.34C21.5921 10.2723 21.5116 10.2187 21.4229 10.1824L21.3093 10.4601C21.3611 10.4813 21.4082 10.5126 21.4478 10.5521L21.6599 10.34ZM21.8175 10.5769C21.7812 10.4883 21.7276 10.4077 21.6599 10.34L21.4478 10.5521C21.4873 10.5917 21.5186 10.6387 21.5398 10.6905L21.8175 10.5769ZM21.8712 10.8564C21.872 10.7606 21.8537 10.6656 21.8175 10.5769L21.5398 10.6905C21.561 10.7423 21.5717 10.7978 21.5712 10.8538L21.8712 10.8564ZM21.8126 11.1349C21.8504 11.0468 21.8703 10.9522 21.8712 10.8564L21.5712 10.8538C21.5707 10.9097 21.5591 10.965 21.537 11.0164L21.8126 11.1349ZM21.6509 11.369C21.7198 11.3025 21.7748 11.2229 21.8126 11.1349L21.537 11.0164C21.5149 11.0679 21.4828 11.1144 21.4425 11.1532L21.6509 11.369ZM18.3917 14.6283L21.6528 11.3672L21.4407 11.1551L18.1795 14.4162L18.3917 14.6283ZM16.9927 18.2857C16.9927 18.549 16.8881 18.8016 16.7019 18.9878L16.9141 19.1999C17.1565 18.9574 17.2927 18.6286 17.2927 18.2857H16.9927ZM16.9927 13.7143V18.2857H17.2927V13.7143H16.9927ZM16.7019 13.0122C16.8881 13.1984 16.9927 13.451 16.9927 13.7143H17.2927C17.2927 13.3714 17.1565 13.0425 16.9141 12.8001L16.7019 13.0122ZM15.9999 12.7214C16.2632 12.7214 16.5157 12.826 16.7019 13.0122L16.9141 12.8001C16.6716 12.5576 16.3428 12.4214 15.9999 12.4214V12.7214ZM15.2978 13.0122C15.484 12.826 15.7366 12.7214 15.9999 12.7214V12.4214C15.657 12.4214 15.3281 12.5576 15.0857 12.8001L15.2978 13.0122ZM15.007 13.7143C15.007 13.451 15.1116 13.1984 15.2978 13.0122L15.0857 12.8001C14.8432 13.0425 14.707 13.3714 14.707 13.7143H15.007ZM15.007 18.2857V13.7143H14.707V18.2857H15.007ZM15.2978 18.9878C15.1116 18.8016 15.007 18.549 15.007 18.2857H14.707C14.707 18.6286 14.8432 18.9574 15.0857 19.1999L15.2978 18.9878ZM15.9999 19.2786C15.7366 19.2786 15.484 19.174 15.2978 18.9878L15.0857 19.1999C15.3281 19.4424 15.657 19.5786 15.9999 19.5786V19.2786ZM16.7019 18.9878C16.5157 19.174 16.2632 19.2786 15.9999 19.2786V19.5786C16.3428 19.5786 16.6716 19.4424 16.9141 19.1999L16.7019 18.9878Z" fill="white" mask="url(#path-2-inside-1)"/>
</svg>
