<svg width="32" height="32" viewBox="0 0 32 32" fill="none" xmlns="http://www.w3.org/2000/svg">
<path d="M0 0H32V32H0V0Z" fill="white"/>
<path fill-rule="evenodd" clip-rule="evenodd" d="M16.1988 8C14.8818 8 13.6187 8.52319 12.6874 9.45446C11.7562 10.3857 11.233 11.6488 11.233 12.9659C11.233 15.4973 10.6912 17.0879 10.1776 18.0296C9.92004 18.5017 9.66688 18.8158 9.48596 19.0068C9.39536 19.1024 9.32254 19.1675 9.27589 19.2064C9.25256 19.2258 9.23576 19.2387 9.22654 19.2456L9.2187 19.2513C9.03818 19.3741 8.95811 19.6002 9.02149 19.8095C9.08534 20.0204 9.27971 20.1646 9.50004 20.1646H22.8976C23.1179 20.1646 23.3123 20.0204 23.3761 19.8095C23.4395 19.6002 23.3595 19.3741 23.1789 19.2513L23.1711 19.2456C23.1619 19.2387 23.1451 19.2258 23.1217 19.2064C23.0751 19.1675 23.0023 19.1024 22.9117 19.0068C22.7308 18.8158 22.4776 18.5017 22.2201 18.0296C21.7064 17.0879 21.1647 15.4973 21.1647 12.9659C21.1647 11.6488 20.6415 10.3857 19.7102 9.45446C18.7789 8.52319 17.5158 8 16.1988 8ZM21.3422 18.5085C21.4801 18.7613 21.6189 18.9789 21.7518 19.1646H10.6459C10.7787 18.9789 10.9175 18.7613 11.0554 18.5085C11.6583 17.4033 12.233 15.6446 12.233 12.9659C12.233 11.914 12.6508 10.9053 13.3945 10.1616C14.1383 9.41783 15.147 9 16.1988 9C17.2506 9 18.2594 9.41783 19.0031 10.1616C19.7468 10.9053 20.1647 11.914 20.1647 12.9659C20.1647 15.6446 20.7394 17.4033 21.3422 18.5085ZM15.3448 22.391C15.2062 22.1521 14.9002 22.0708 14.6614 22.2094C14.4225 22.3479 14.3412 22.6539 14.4798 22.8928C14.6546 23.1941 14.9055 23.4442 15.2074 23.6181C15.5093 23.792 15.8515 23.8835 16.1999 23.8835C16.5483 23.8835 16.8906 23.792 17.1925 23.6181C17.4944 23.4442 17.7453 23.1941 17.9201 22.8928C18.0586 22.6539 17.9773 22.3479 17.7385 22.2094C17.4996 22.0708 17.1936 22.1521 17.0551 22.391C16.9682 22.5408 16.8434 22.6651 16.6934 22.7516C16.5433 22.838 16.3731 22.8835 16.1999 22.8835C16.0267 22.8835 15.8566 22.838 15.7065 22.7516C15.5564 22.6651 15.4317 22.5408 15.3448 22.391Z" fill="#132144"/>
</svg>
