<svg width="100" height="100" viewBox="0 0 100 100" fill="none" xmlns="http://www.w3.org/2000/svg">
<circle cx="50" cy="50" r="49" stroke="#B2C82A" stroke-width="2"/>
<path d="M67.7262 56.7216C66.5007 56.1058 65.0338 55.4961 63.4783 54.8421C61.421 53.9848 59.1286 53.026 57.0204 51.8957C57.8458 50.8033 58.4682 49.5272 58.8492 48.1363C60.2716 46.7203 61.7195 44.2119 61.7195 41.7924C61.7195 40.5733 61.5987 39.6459 61.0209 39.0748C60.9447 38.9987 60.8431 38.9098 60.716 38.8337L60.6654 35.2333C60.6654 35.0871 60.6845 31.6393 58.0873 29.0038C56.2078 27.0924 53.4898 26.1272 50.0038 26.1272C46.5178 26.1272 43.7926 27.0924 41.9131 29.0038C39.3159 31.6389 39.335 35.0871 39.335 35.2014L39.2904 38.8337C39.1633 38.9098 39.0616 38.9987 38.9791 39.0748C38.4013 39.6463 38.2805 40.5733 38.2805 41.7924C38.2805 44.2119 39.7348 46.7199 41.1508 48.1363C41.5381 49.5268 42.1602 50.8097 42.9796 51.8957C40.8714 53.026 38.579 53.9848 36.5218 54.8421C34.9659 55.4897 33.4992 56.1058 32.2737 56.7216C28.5717 58.5823 26 65.0908 26 69.7708V70.3933L26.5588 70.6408C33.2645 73.6382 46.1994 73.873 50.003 73.873C53.8066 73.873 66.7291 73.6378 73.4345 70.6408L73.9996 70.3933V69.7708C74 65.0908 71.4219 58.5823 67.7262 56.7216ZM42.9294 47.3998L42.8596 47.1268L42.65 46.9363C41.4245 45.7997 40.1863 43.6659 40.1863 41.7928C40.1863 40.9866 40.2496 40.6434 40.3006 40.4976L41.1706 40.5103L41.2404 35.2078C41.2404 35.1759 41.2468 32.3758 43.2853 30.3246C44.7965 28.8006 47.057 28.0322 50.0038 28.0322C52.9505 28.0322 55.2046 28.8006 56.7159 30.3182C58.7544 32.3754 58.7607 35.1759 58.7607 35.2329L58.8241 39.5574L58.856 40.5099L59.7069 40.4972C59.7515 40.6431 59.8149 40.9926 59.8149 41.7924C59.8149 43.6719 58.5766 45.7993 57.3511 46.9359L57.1479 47.1264L57.0781 47.3994C56.7163 48.8154 56.0746 50.0983 55.1986 51.1269C50.3026 54.6006 46.3531 52.3461 44.9686 51.3047C44.0086 50.2446 43.3104 48.9047 42.9294 47.3998ZM50.003 71.968C42.6433 71.968 33.1246 71.2187 27.9174 69.1487C28.1337 64.7927 30.5656 59.7126 33.1246 58.4233C34.2931 57.8391 35.7283 57.2357 37.2523 56.6008C39.5383 55.6483 42.1164 54.5751 44.4598 53.248C45.6534 53.9972 47.5711 54.8863 49.9396 54.8863C51.5971 54.8863 53.4766 54.4483 55.4833 53.2165C57.8454 54.5563 60.4426 55.6419 62.7478 56.6008C64.2718 57.2357 65.7069 57.8391 66.8754 58.4233C69.4344 59.7126 71.8603 64.7923 72.0763 69.1487C66.8754 71.2187 57.3564 71.968 50.003 71.968Z" fill="#B2C82A"/>
</svg>
